<svg width="273" height="79" viewBox="0 0 273 79" fill="none" xmlns="http://www.w3.org/2000/svg">
<path d="M62.6817 52.7868C62.5656 48.7227 62.0722 45.9069 61.2015 44.3393C60.3889 42.7717 58.4733 41.9879 55.4549 41.9879C52.4945 41.9879 49.7373 42.6266 47.1832 43.9039C47.1832 51.3353 46.8059 59.8989 46.0513 69.5946L52.9298 70.3784C52.9298 72.7587 52.2623 75.2843 50.9272 77.9549H29.2467L28.4631 73.1652C31.4815 72.062 34.1226 71.1912 36.3865 70.5525L35.6899 52.4384C35.5738 48.6646 35.1094 45.994 34.2968 44.4264C33.5422 42.8008 32.062 41.9879 29.8562 41.9879C28.6953 41.9879 27.0119 42.1911 24.8061 42.5975C22.6003 43.004 20.917 43.4394 19.756 43.9039C19.756 44.078 19.4948 52.6416 18.9724 69.5946L25.7639 70.3784C25.7639 72.9329 25.0964 75.4585 23.7613 77.9549H2.08077L1.29714 73.1652C4.7219 71.8298 7.33401 70.9589 9.13347 70.5525L8.00155 42.4234C5.62163 42.1911 3.32878 41.7557 1.123 41.1171L1.55835 34.8468C2.54515 34.5565 4.66386 34.2082 7.91448 33.8017C11.1651 33.3953 13.6321 33.1921 15.3155 33.1921C15.5476 33.3663 15.983 33.9179 16.6215 34.8468C17.26 35.7177 17.6954 36.4144 17.9276 36.9369C19.9012 35.9499 22.2811 34.9919 25.0673 34.063C27.9116 33.1341 29.653 32.6696 30.2915 32.6696C36.4445 32.6696 40.9431 34.2662 43.7874 37.4594C45.9932 36.2982 48.6634 35.2242 51.7979 34.2372C54.9324 33.1921 56.877 32.6696 57.6316 32.6696C63.1461 32.6696 67.2674 33.9759 69.9956 36.5885C72.7238 39.2011 74.0879 43.5555 74.0879 49.6516C74.0879 53.019 73.8267 59.6666 73.3043 69.5946L80.0958 70.3784C80.0958 72.9329 79.4282 75.4585 78.0931 77.9549H56.4997L55.7161 73.1652C58.4443 72.062 60.9403 71.1912 63.2041 70.5525C63.1461 69.2172 63.088 67.3303 63.03 64.8919C62.9139 60.8859 62.7978 56.8508 62.6817 52.7868Z" fill="#455A64"/>
<path d="M100.273 33.3663C101.376 33.3663 102.072 33.3953 102.363 33.4534C102.363 36.2982 101.869 38.9399 100.882 41.3783C100.65 53.9189 100.505 63.3243 100.447 69.5946L107.239 70.3784C107.239 72.7587 106.571 75.2843 105.236 77.9549H83.5554L82.7718 73.1652C86.3707 71.8298 88.9828 70.9589 90.6081 70.5525L89.6504 42.3363C86.2256 41.9879 83.7006 41.5525 82.0752 41.03C82.0752 39.5785 82.2784 37.4884 82.6847 34.7597C86.1095 33.8308 91.9722 33.3663 100.273 33.3663ZM100.273 16.9068C100.795 19.5194 101.057 21.5224 101.057 22.9158C101.057 24.2512 100.94 25.7607 100.708 27.4444C98.3864 27.9669 96.4128 28.2282 94.7875 28.2282C93.2202 28.2282 91.3047 28.1411 89.0409 27.9669C88.5184 25.3543 88.2572 23.3803 88.2572 22.045C88.2572 20.6516 88.3733 19.113 88.6055 17.4293C90.9274 16.9068 92.872 16.6456 94.4392 16.6456C96.0645 16.6456 98.0091 16.7327 100.273 16.9068Z" fill="#455A64"/>
<path d="M134.632 42.075C134.516 41.7847 133.936 41.6396 132.891 41.6396C131.846 41.6396 130.047 42.4234 127.493 43.9909C127.26 55.3703 127.115 63.9049 127.057 69.5946L133.849 70.4654C133.849 72.962 133.181 75.4585 131.846 77.9549H110.166L109.382 73.1652C112.981 71.8298 115.593 70.9589 117.218 70.5525L116.261 42.3363C113.242 42.1041 110.717 41.6686 108.685 41.03L109.295 34.7597C110.862 34.063 116.522 33.5985 126.274 33.3663C126.796 33.8888 127.057 34.9048 127.057 36.4144C132.165 33.9179 135.387 32.6696 136.722 32.6696C138.115 32.6696 139.799 33.018 141.772 33.7147C143.804 34.3533 145.342 35.05 146.387 35.8047V37.2852C146.387 42.046 145.806 46.4584 144.645 50.5225C143.659 50.9289 142.353 51.1321 140.727 51.1321C139.102 51.1321 137.593 51.045 136.2 50.8708C136.025 50.1161 135.503 47.1841 134.632 42.075Z" fill="#29E68B"/>
<path d="M171.221 70.4654C173.195 70.4654 177.2 69.1011 183.237 66.3724C184.514 68.2302 185.471 70.3784 186.11 72.8168C182.917 74.7908 179.783 76.3293 176.706 77.4324C173.688 78.4775 171.54 79 170.263 79C163.24 79 157.899 77.055 154.242 73.1652C150.643 69.2753 148.844 63.7597 148.844 56.6186C148.844 49.4194 150.643 43.6426 154.242 39.2882C157.841 34.8758 163.181 32.6696 170.263 32.6696C175.894 32.6696 180.189 34.4984 183.15 38.1561C186.11 41.8138 187.59 46.5745 187.59 52.4384C187.59 53.6576 186.894 55.051 185.5 56.6186L160.424 56.1832C160.54 60.8278 161.411 64.3693 163.036 66.8078C164.662 69.2462 167.39 70.4654 171.221 70.4654ZM169.48 39.8979C167.274 39.8979 165.213 40.3333 163.298 41.2042C161.962 43.9909 161.121 46.5745 160.773 48.9549C165.3 48.7807 170.437 48.6646 176.184 48.6066C175.894 42.8008 173.659 39.8979 169.48 39.8979Z" fill="#29E68B"/>
<path d="M221.61 32.6696C227.415 32.6696 231.623 34.092 234.235 36.9369C236.847 39.7817 238.154 43.7587 238.154 48.8678C238.154 53.9769 237.863 60.8859 237.283 69.5946L244.161 70.3784C244.161 72.7587 243.494 75.2843 242.159 77.9549H220.478L219.695 73.1652C222.423 72.062 224.948 71.1912 227.27 70.5525C227.096 63.8759 226.921 58.2732 226.747 53.7447C226.573 49.1581 226.138 46.052 225.441 44.4264C224.745 42.8008 223.206 41.9879 220.827 41.9879C217.228 41.9879 214.006 42.6266 211.162 43.9039C211.104 46.4004 210.93 50.4935 210.639 56.1832C210.407 61.8148 210.262 66.2853 210.204 69.5946L216.995 70.3784C216.995 72.7587 216.328 75.2843 214.993 77.9549H193.312L192.529 73.1652C195.431 72.062 198.043 71.1912 200.365 70.5525C200.307 67.0691 200.104 62.2502 199.756 56.0961C199.465 49.9419 199.291 45.3843 199.233 42.4234C197.085 42.1911 194.793 41.7557 192.355 41.1171L192.79 34.8468C196.853 33.7437 201.439 33.1921 206.547 33.1921C207.186 33.5985 208.056 34.8468 209.159 36.9369C211.133 35.9499 213.542 34.9919 216.386 34.063C219.23 33.1341 220.972 32.6696 221.61 32.6696Z" fill="#29E68B"/>
<path d="M256.805 79L254.889 78.9129C254.541 78.2743 254.077 77.0841 253.496 75.3423C252.916 73.6006 252.597 72.2943 252.538 71.4234C252.248 65.6757 251.929 55.7187 251.581 41.5525H245.486L245.747 36.5885C247.082 35.6596 248.678 34.8178 250.536 34.063L257.589 22.9158C259.852 23.1481 261.623 23.7577 262.9 24.7447L262.813 33.018C266.47 33.1341 269.865 33.4824 273 34.063C273 36.3853 272.274 38.8818 270.823 41.5525H262.726C262.494 53.7447 262.348 62.8889 262.29 68.985C264.612 69.2172 267.776 69.8849 271.781 70.988L271.694 75.5165C270.707 76.1552 268.501 76.9099 265.077 77.7808C261.71 78.5936 258.953 79 256.805 79Z" fill="#29E68B"/>
<path d="M0 18.2237L39.4148 0L39.0279 8.41408L3.78833 24.8862L0 18.2237Z" fill="#455A64"/>
<path d="M78.4427 18.2237L39.4148 0L38.9891 8.55735L74.6544 24.8862L78.4427 18.2237Z" fill="#455A64"/>
</svg>
