<svg width="426" height="316" viewBox="0 0 426 316" fill="none" xmlns="http://www.w3.org/2000/svg">
<g clip-path="url(#clip0_5_8417)">
<path d="M121.856 276.226L92.1055 231.885L114.179 213.968L151.481 248.568C151.481 248.568 167.541 158.528 183.365 153.069L182.132 292.743C160.724 302.955 135.075 295.929 121.856 276.226Z" fill="#0A1D24"/>
<path d="M60.9697 67.4219L67.2884 153.748L170.908 352.367L230.811 317.67L128.701 123.568L60.9697 67.4219Z" fill="#FF4F5B"/>
<g opacity="0.7">
<path opacity="0.7" d="M129.713 123.929C128.091 126.963 123.505 127.864 120.858 125.661C122.382 131.869 119.556 138.908 114.165 142.33C108.775 145.767 101.209 145.337 96.2349 141.319C95.4174 147.596 91.0387 153.277 85.1773 155.66C79.3159 158.043 72.2075 157.018 67.2606 153.097L60.9697 67.4219L129.713 123.929Z" fill="white"/>
</g>
<path d="M63.5055 102.146C63.5055 102.146 77.5423 110.959 88.7108 90.4237L60.9697 67.4219L63.5055 102.146Z" fill="#FF4F5B"/>
<path d="M193.744 336.141C193.564 336.224 171.532 292.756 144.553 239.049C117.56 185.327 95.819 141.72 95.9992 141.623C96.1793 141.54 118.198 184.994 145.204 238.716C172.183 292.438 193.924 336.058 193.744 336.141Z" fill="white"/>
<path d="M218.644 321.245C218.464 321.328 196.432 277.861 169.453 224.153C142.447 170.431 120.719 126.825 120.886 126.728C121.066 126.645 143.084 170.099 170.091 223.82C197.083 277.528 218.825 321.148 218.644 321.245Z" fill="white"/>
<path d="M96.8173 183.068L83.3763 188.431L80.4941 199.267L85.1223 217.335L95.972 228.85L103.288 222.795L103.746 211.737L104.646 205.544C104.646 205.544 111.27 203.465 111.436 202.454C111.602 201.442 110.619 198.033 109.593 197.881C108.582 197.715 101.626 200.306 101.626 200.306C101.626 200.306 109.856 193.793 109.621 192.754C109.385 191.701 108.512 189.027 106.863 188.736C105.228 188.445 91.9536 194.694 91.9536 194.694L89.792 199.613L87.9075 191.756C87.9352 191.742 99.741 188.431 96.8173 183.068Z" fill="#C78976"/>
<path d="M98.5077 208.467C98.4246 208.495 98.1752 207.996 98.0505 207.123C97.9258 206.25 97.9812 205.003 98.4523 203.728C98.9234 202.454 99.6994 201.47 100.351 200.888C101.016 200.306 101.528 200.098 101.57 200.167C101.709 200.333 99.9488 201.581 99.1036 203.964C98.2029 206.333 98.7156 208.426 98.5077 208.467Z" fill="#BF654E"/>
<path d="M92.1199 206.112C92.0367 206.07 92.5217 204.795 92.6464 202.592C92.7573 201.497 92.8127 200.139 93.3254 198.698C93.5887 197.978 93.9628 197.243 94.5587 196.62C95.1545 195.996 95.9582 195.567 96.748 195.234C99.9627 194.07 102.859 193.128 104.979 192.435C107.099 191.756 108.415 191.396 108.443 191.479C108.471 191.576 107.21 192.103 105.131 192.893C103.067 193.696 100.157 194.722 96.9974 195.872C96.2353 196.177 95.5425 196.551 95.0298 197.077C94.5032 197.604 94.1568 198.255 93.9074 198.906C93.4085 200.223 93.2838 201.539 93.1176 202.648C92.882 204.878 92.2169 206.167 92.1199 206.112Z" fill="#BF654E"/>
<path d="M89.0438 203.687C88.8498 203.659 88.8914 202.467 89.1269 201.04C89.3625 199.613 89.7089 198.477 89.9029 198.504C90.0969 198.532 90.0553 199.724 89.8198 201.151C89.5703 202.578 89.2239 203.714 89.0438 203.687Z" fill="#BF654E"/>
<path d="M270.76 127.254L258.982 123.25L214.945 133.365L211.038 136.594L187.717 352.381C197.721 362.704 229.287 364.755 247.203 361.692L270.76 127.254Z" fill="#FF4F5B"/>
<path d="M271.577 127.67L265.91 124.843C265.91 124.843 253.439 179.77 253.439 216.061C253.439 252.351 245.596 383.877 245.596 383.877L304.999 382.352V237.025L271.577 127.67Z" fill="#0A1D24"/>
<path d="M187.731 386.052L165.228 379.456L173.084 273.108L171.602 196.024L183.394 153.055L211.329 135.79C211.301 135.804 189.269 373.249 187.731 386.052Z" fill="#0A1D24"/>
<path d="M234.677 153.803C223.453 152.806 214.875 143.383 214.917 132.118L214.986 112.816C214.986 112.816 197.153 110.045 196.945 92.225C196.723 74.4056 199.813 33.4735 199.813 33.4735C220.446 24.6053 244.265 27.5983 262.057 41.3024L264.704 43.3393L258.247 133.753C257.36 145.85 246.746 154.884 234.677 153.803Z" fill="#C78976"/>
<path d="M214.959 112.566C214.959 112.566 226.224 113.481 238.196 105.957C238.196 105.957 232.709 118.788 214.917 117.181L214.959 112.566Z" fill="#BF654E"/>
<path d="M262.501 61.7962C262.805 61.6576 274.75 58.1796 274.362 70.3595C273.974 82.5394 261.822 79.6433 261.808 79.2969C261.794 78.9505 262.501 61.7962 262.501 61.7962Z" fill="#C78976"/>
<path d="M265.674 74.7936C265.729 74.752 265.882 74.946 266.228 75.1261C266.575 75.2924 267.171 75.431 267.808 75.2093C269.11 74.7797 270.261 72.7705 270.385 70.5812C270.455 69.4727 270.247 68.4057 269.886 67.5189C269.54 66.6182 268.986 65.9808 268.348 65.8423C267.711 65.676 267.24 66.0501 267.074 66.3827C266.893 66.7152 266.963 66.9646 266.907 66.9785C266.866 67.0062 266.658 66.7707 266.769 66.2718C266.824 66.0363 266.977 65.7453 267.268 65.5236C267.572 65.3019 268.002 65.191 268.445 65.2464C269.388 65.3434 270.205 66.2302 270.607 67.2002C271.064 68.184 271.314 69.3757 271.23 70.6228C271.078 73.0754 269.748 75.334 267.96 75.7912C267.101 75.9852 266.395 75.7081 266.034 75.4033C265.688 75.0984 265.632 74.8213 265.674 74.7936Z" fill="#BF654E"/>
<path d="M205.647 60.9094C205.605 62.2534 206.7 63.4035 208.099 63.4728C209.499 63.5421 210.677 62.5167 210.718 61.1726C210.76 59.8285 209.665 58.6785 208.266 58.6092C206.88 58.5399 205.702 59.5653 205.647 60.9094Z" fill="#0A1D24"/>
<path d="M203.18 58.5538C203.499 58.8863 205.425 57.4591 208.169 57.4591C210.899 57.4314 212.922 58.8309 213.213 58.4983C213.365 58.3459 213.032 57.7501 212.159 57.1127C211.3 56.4753 209.832 55.8656 208.127 55.8656C206.423 55.8794 204.982 56.503 204.164 57.1404C203.305 57.8055 203.028 58.4013 203.18 58.5538Z" fill="#0A1D24"/>
<path d="M232.57 62.0594C232.529 63.4035 233.624 64.5536 235.023 64.6229C236.423 64.6922 237.6 63.6668 237.642 62.3227C237.684 60.9786 236.589 59.8285 235.189 59.7593C233.804 59.69 232.626 60.7154 232.57 62.0594Z" fill="#0A1D24"/>
<path d="M230.104 59.0664C230.423 59.399 232.349 57.9718 235.093 57.9856C237.822 57.9579 239.845 59.3574 240.136 59.0249C240.275 58.8724 239.97 58.2766 239.083 57.6392C238.224 57.0018 236.755 56.3921 235.051 56.3921C233.347 56.406 231.906 57.0295 231.088 57.6669C230.243 58.3182 229.952 58.914 230.104 59.0664Z" fill="#0A1D24"/>
<path d="M220.169 79.3801C220.182 79.2276 218.478 78.9367 215.721 78.5764C215.028 78.5071 214.363 78.3685 214.238 77.8836C214.072 77.3847 214.363 76.6226 214.709 75.8051C215.36 74.1146 216.053 72.341 216.774 70.4842C219.642 62.9047 221.721 56.6693 221.416 56.5584C221.111 56.4476 218.534 62.5029 215.665 70.0824C214.972 71.953 214.307 73.7405 213.684 75.4448C213.42 76.2346 212.963 77.1353 213.323 78.1884C213.517 78.715 214.03 79.0891 214.474 79.2138C214.917 79.3524 215.319 79.3524 215.665 79.3801C218.437 79.5186 220.155 79.5325 220.169 79.3801Z" fill="#0A1D24"/>
<path d="M229.397 48.3276C229.66 49.0759 232.404 48.7156 235.619 49.1036C238.834 49.4223 241.425 50.3645 241.854 49.6994C242.048 49.3807 241.591 48.6741 240.552 47.9535C239.512 47.233 237.85 46.554 235.924 46.3323C233.998 46.1245 232.224 46.4293 231.06 46.9004C229.868 47.3993 229.286 47.9812 229.397 48.3276Z" fill="#0A1D24"/>
<path d="M204.192 50.6278C204.677 51.2514 206.562 50.6001 208.834 50.5724C211.107 50.4615 213.019 50.9881 213.462 50.3368C213.656 50.0181 213.352 49.3946 212.52 48.8126C211.689 48.2306 210.303 47.7457 208.751 47.7872C207.199 47.8427 205.841 48.3969 205.052 49.0343C204.234 49.6856 203.971 50.323 204.192 50.6278Z" fill="#0A1D24"/>
<path d="M191.125 22.2359C190.931 20.0327 191.763 17.6494 193.55 16.3607C195.352 15.0582 198.137 15.1413 199.592 16.818C198.76 13.8388 201.185 10.4024 204.275 10.2084C207.185 10.0283 209.665 12.2176 212.464 12.9936C215.208 13.7418 218.146 13.0906 220.792 12.0375C223.425 10.9705 225.892 9.51559 228.566 8.53177C234.136 6.49487 240.51 6.75814 245.901 9.2246C251.291 11.7049 255.628 16.3607 257.72 21.9172C261.614 20.6978 266.048 22.6793 268.445 25.9771C270.843 29.275 271.466 33.612 270.981 37.672C270.662 40.4156 269.873 43.0622 268.944 45.6672C268.944 45.9028 268.972 46.1245 268.958 46.3462C268.778 56.1427 267.669 67.6575 263.485 67.7268C256.196 67.8376 257.928 54.1058 257.928 54.1058C248.991 50.6555 252.316 37.2563 250.085 35.2194C247.854 33.1825 243.171 28.4574 224.451 38.0323C217.176 41.7458 207.518 41.635 202.238 40.4294C202.086 40.4017 201.933 40.374 201.767 40.3324C201.739 40.3186 201.698 40.3186 201.656 40.3047C201.601 40.2909 201.559 40.2632 201.504 40.2355C199.827 39.792 198.192 39.1408 196.696 38.1985C195.005 37.1316 193.453 35.6767 192.733 33.7922C192.012 31.9216 192.289 29.5798 193.758 28.208C192.4 26.4898 191.319 24.439 191.125 22.2359Z" fill="#0A1D24"/>
<path d="M217.841 87.8048C218.27 88.8856 218.714 89.9942 219.434 90.9225C220.155 91.8509 221.208 92.5715 222.372 92.6269C223.619 92.6823 224.811 91.9479 225.518 90.9087C226.21 89.8694 226.446 88.5808 226.39 87.3337C226.335 86.2113 225.822 84.8672 224.7 84.7287C224.229 84.6733 223.772 84.8534 223.342 85.0335C221.388 85.8233 219.421 86.627 217.467 87.4168" fill="#BF654E"/>
<path d="M220.183 92.6407C220.211 92.4606 221.499 92.9872 223.315 92.2528C224.188 91.8925 225.158 91.1997 225.684 90.105C226.211 89.0242 226.322 87.5415 225.767 86.2529C225.643 85.9342 225.449 85.6432 225.255 85.3799C225.019 85.1305 225.061 85.1444 224.811 85.1859C224.576 85.2552 224.188 85.4354 223.869 85.5601C223.536 85.6986 223.218 85.8233 222.899 85.948C221.638 86.4607 220.502 86.9042 219.546 87.2644C217.62 87.985 216.4 88.3591 216.345 88.2344C216.289 88.0958 217.398 87.4861 219.255 86.5854C220.183 86.142 221.292 85.6293 222.525 85.0612C222.83 84.9227 223.148 84.7841 223.481 84.6317C223.827 84.4931 224.091 84.3407 224.548 84.1883C224.783 84.119 225.102 84.0913 225.421 84.216C225.726 84.3407 225.92 84.5485 226.072 84.7287C226.335 85.0751 226.571 85.4354 226.737 85.8372C227.43 87.4446 227.264 89.2182 226.557 90.5346C225.837 91.8786 224.617 92.6407 223.578 92.9456C222.525 93.2781 221.61 93.195 221.028 93.0426C220.432 92.904 220.169 92.6962 220.183 92.6407Z" fill="#0A1D24"/>
<path d="M250.695 33.5428C250.626 33.5289 250.875 32.7668 250.709 31.3811C250.543 30.0232 249.767 28.0417 247.924 26.3789C246.136 24.6746 243.171 23.6492 239.901 23.7324C236.603 23.7601 233.097 24.8409 229.48 26.0602C227.665 26.6561 225.864 27.2381 224.09 27.626C222.303 28.014 220.557 28.2219 218.88 28.2634C215.527 28.3604 212.52 27.82 210.095 27.1133C207.67 26.3789 205.827 25.4783 204.594 24.7855C203.97 24.439 203.513 24.1481 203.208 23.9263C202.903 23.7185 202.751 23.6076 202.751 23.5938C202.779 23.5522 203.43 23.9818 204.677 24.6053C205.924 25.2427 207.781 26.0741 210.178 26.7531C212.575 27.4043 215.541 27.9032 218.839 27.7785C220.487 27.723 222.206 27.5152 223.952 27.1272C225.698 26.7392 227.471 26.1572 229.3 25.5614C232.917 24.342 236.492 23.2474 239.887 23.2474C243.254 23.192 246.33 24.2866 248.173 26.1018C250.058 27.8616 250.792 29.9539 250.917 31.3534C251.028 32.7945 250.695 33.5428 250.695 33.5428Z" fill="#375A64"/>
<path d="M264.552 63.6668C264.538 63.6806 264.455 63.5421 264.317 63.2927C264.178 63.0433 263.984 62.6553 263.762 62.1564C263.319 61.1588 262.765 59.6484 262.349 57.7224C261.947 55.7963 261.684 53.4407 261.892 50.8357C262.058 48.2168 262.875 45.4455 263.485 42.5495C264.123 39.6673 264.261 36.7852 263.499 34.3603C263.139 33.1548 262.529 32.0878 261.795 31.2564C261.046 30.4389 260.132 29.8846 259.231 29.5798C257.416 28.9424 255.781 29.2334 254.839 29.6906C253.883 30.1756 253.508 30.7022 253.467 30.6467C253.467 30.6467 253.772 30.0786 254.742 29.5105C255.712 28.9701 257.43 28.596 259.356 29.2334C260.312 29.5382 261.296 30.1063 262.113 30.9654C262.917 31.8384 263.568 32.9608 263.956 34.2217C264.788 36.7575 264.635 39.7505 263.998 42.6603C263.374 45.5979 262.557 48.3138 262.377 50.8772C262.155 53.4268 262.363 55.7547 262.723 57.6531C263.083 59.5653 263.582 61.0618 263.97 62.0733C264.33 63.0987 264.594 63.6391 264.552 63.6668Z" fill="#375A64"/>
<path d="M252.399 32.1017C252.385 32.1017 252.385 31.8523 252.413 31.3811C252.427 30.8546 252.455 30.1895 252.482 29.3304C252.496 27.5706 252.552 24.9517 251.665 21.931C251.208 20.4345 250.459 18.8549 249.281 17.4415C248.131 16.0281 246.496 14.7949 244.501 14.2822C242.519 13.7418 240.288 13.9358 238.127 14.5455C235.951 15.1552 233.859 16.2498 231.753 17.4415C229.647 18.6332 227.582 19.8387 225.434 20.6978C223.273 21.5292 221.042 21.9587 218.921 22.0003C216.801 22.0419 214.765 21.7786 212.949 21.2659C211.134 20.7532 209.513 20.0465 208.113 19.2706C205.328 17.6632 203.471 15.7787 202.377 14.3792C201.809 13.6864 201.448 13.0906 201.213 12.6887C200.977 12.2869 200.852 12.0652 200.866 12.0652C200.88 12.0513 201.033 12.2592 201.296 12.6333C201.559 13.0213 201.947 13.5894 202.529 14.2545C203.665 15.5986 205.522 17.4138 208.28 18.9519C209.665 19.6863 211.273 20.3652 213.06 20.8502C214.848 21.3352 216.829 21.5846 218.908 21.5153C220.986 21.4599 223.148 21.0303 225.254 20.2128C227.36 19.3676 229.397 18.1759 231.517 16.9842C233.623 15.7926 235.771 14.6841 238.016 14.0605C240.247 13.437 242.575 13.243 244.653 13.825C246.76 14.3792 248.464 15.6956 249.642 17.1782C250.847 18.6609 251.596 20.2959 252.039 21.8479C252.912 24.9656 252.787 27.5983 252.704 29.3581C252.649 30.2449 252.579 30.9377 252.524 31.4089C252.468 31.8661 252.427 32.1017 252.399 32.1017Z" fill="#375A64"/>
<path d="M271.577 127.67C271.577 127.67 314.075 141.263 316.902 148.635C319.022 154.164 341.359 221.188 346.181 264.877C348.149 282.669 334.957 298.562 317.124 300.197C288.343 302.844 246.565 306.28 246.565 303.911V267.676L300.69 259.681L280.639 200.749L271.577 127.67Z" fill="#0A1D24"/>
<path d="M217.037 296.595C222.594 298.036 246.58 298.036 246.58 298.036V269.574C246.58 269.574 236.146 265.113 233.263 262.521C230.381 259.93 222.192 244.619 222.192 244.619C222.192 244.619 217.148 247.459 218.423 253.376C219.767 259.625 222.358 260.388 222.525 262.882C222.525 262.909 222.732 263.519 222.746 263.547C223.301 267.011 219.989 270.073 219.989 270.073C220.197 270.032 217.245 268.313 216.345 268.203C211.287 267.607 205.301 271.223 205.301 273.246C205.301 273.246 205.121 278.692 205.301 279.51C205.481 280.313 208.031 281.394 208.031 281.394C208.031 281.394 207.227 285.024 208.031 286.646C208.834 288.267 211.536 289.472 211.536 289.472C211.536 289.472 213.906 295.777 217.037 296.595Z" fill="#C78976"/>
<path d="M222.857 292.022C222.871 292.202 220.224 292.41 217.079 291.703C213.92 291.024 211.606 289.736 211.689 289.569C211.772 289.375 214.155 290.331 217.231 290.997C220.294 291.689 222.857 291.814 222.857 292.022Z" fill="#BF654E"/>
<path d="M221.444 283.5C221.485 283.68 218.534 284.345 214.89 283.847C211.245 283.376 208.571 281.948 208.654 281.796C208.737 281.588 211.453 282.683 214.973 283.14C218.52 283.611 221.416 283.279 221.444 283.5Z" fill="#BF654E"/>
<path d="M220.613 259.057C220.682 259.002 221.61 260.263 222.539 262.577C222.76 263.159 222.996 263.81 223.148 264.544C223.315 265.251 223.384 266.152 223.121 266.983C222.677 268.674 221.375 270.212 219.684 271.182C218.839 271.681 217.952 272.027 217.038 272.221C216.123 272.415 215.264 272.457 214.446 272.484C212.811 272.54 211.343 272.512 210.109 272.54C207.657 272.554 206.188 272.9 206.146 272.817C206.105 272.72 207.587 272.179 210.082 272.041C211.315 271.944 212.784 271.916 214.405 271.819C215.209 271.764 216.054 271.708 216.885 271.528C217.703 271.334 218.548 271.015 219.31 270.558C220.876 269.658 222.054 268.272 222.469 266.803C222.719 266.055 222.677 265.376 222.553 264.669C222.428 263.976 222.234 263.339 222.054 262.757C221.278 260.443 220.516 259.113 220.613 259.057Z" fill="#BF654E"/>
<path d="M301.369 259.598C301.369 259.639 300.62 259.806 299.235 260.055C297.724 260.318 295.757 260.651 293.387 261.053C288.44 261.87 281.595 262.951 274.043 264.101C266.477 265.237 259.618 266.235 254.644 266.886C249.683 267.537 246.579 267.87 246.565 267.69C247.147 267.593 247.757 267.482 248.699 267.33C250.21 267.094 252.177 266.775 254.561 266.387C259.632 265.598 266.422 264.558 273.918 263.394C281.484 262.258 288.329 261.247 293.304 260.554C295.687 260.235 297.669 259.986 299.193 259.778C300.593 259.612 301.369 259.542 301.369 259.598Z" fill="#375A64"/>
<path d="M324.357 254.235C324.357 254.332 322.722 254.318 320.089 254.194C317.457 254.083 313.826 253.875 309.822 253.598C307.812 253.459 305.928 253.293 304.279 253.653C302.644 254 301.314 254.887 300.676 255.94C300.025 257.007 300.011 258.101 300.163 258.78C300.33 259.473 300.593 259.792 300.538 259.833C300.51 259.861 300.164 259.584 299.886 258.863C299.637 258.157 299.554 256.937 300.219 255.69C300.898 254.457 302.353 253.432 304.113 253.016C305.886 252.586 307.868 252.739 309.849 252.877C313.854 253.154 317.484 253.432 320.103 253.681C322.736 253.93 324.357 254.138 324.357 254.235Z" fill="#375A64"/>
<path d="M315.447 264.157C315.391 264.351 311.941 263.491 307.742 262.258C303.544 261.011 300.177 259.847 300.232 259.667C300.288 259.473 303.738 260.332 307.936 261.565C312.135 262.812 315.502 263.976 315.447 264.157Z" fill="#375A64"/>
<path d="M281.873 193.267C282.067 193.211 286.432 206.985 291.628 224.042C296.824 241.099 300.884 254.97 300.69 255.025C300.496 255.081 296.131 241.307 290.935 224.25C285.739 207.192 281.679 193.322 281.873 193.267Z" fill="#375A64"/>
<path d="M313.604 149.66C313.632 149.799 311.11 150.173 307.327 151.642C303.558 153.083 298.542 155.813 294.177 160.205C289.812 164.598 287.11 169.641 285.697 173.41C284.256 177.207 283.896 179.729 283.757 179.701C283.716 179.687 283.771 179.064 283.965 177.928C284.159 176.791 284.547 175.184 285.212 173.23C286.515 169.35 289.203 164.168 293.651 159.678C298.099 155.189 303.267 152.473 307.133 151.143C309.073 150.464 310.694 150.062 311.817 149.868C312.967 149.674 313.59 149.619 313.604 149.66Z" fill="#375A64"/>
<path d="M172.155 179.216C172.183 179.216 172.211 179.549 172.238 180.186C172.266 180.893 172.294 181.807 172.335 182.944C172.391 185.424 172.46 188.874 172.543 193.1C172.654 201.761 172.793 213.566 172.945 226.619C173.028 239.672 173.084 251.492 173.139 260.152C173.125 264.378 173.125 267.828 173.111 270.309C173.097 271.445 173.084 272.373 173.07 273.066C173.056 273.704 173.028 274.036 173 274.036C172.973 274.036 172.945 273.704 172.917 273.08C172.89 272.373 172.862 271.459 172.82 270.323C172.765 267.842 172.696 264.392 172.612 260.166C172.502 251.506 172.363 239.7 172.211 226.633C172.127 213.58 172.072 201.761 172.017 193.114C172.03 188.888 172.03 185.438 172.044 182.957C172.058 181.821 172.072 180.893 172.086 180.2C172.1 179.549 172.127 179.216 172.155 179.216Z" fill="#375A64"/>
<path d="M317.137 300.197C317.151 300.391 301.521 301.583 282.246 302.858C262.958 304.133 247.314 304.992 247.3 304.798C247.286 304.604 262.902 303.412 282.191 302.137C301.479 300.862 317.124 300.003 317.137 300.197Z" fill="#375A64"/>
</g>
<path d="M426 179H364V228.663H426V179Z" fill="#F7AAAC"/>
<path fill-rule="evenodd" clip-rule="evenodd" d="M405.317 200.667L420.179 223.368H409.806H390.455H370.236L390.021 193.147L400.131 208.588L405.317 200.667ZM409.608 186.678C412.682 186.678 415.173 189.169 415.173 192.246C415.173 195.319 412.682 197.811 409.608 197.811C406.535 197.811 404.04 195.319 404.04 192.246C404.04 189.169 406.531 186.678 409.608 186.678Z" fill="white"/>
<path d="M172.415 0H86V63.7854H172.415V0Z" fill="#F7AAAC"/>
<path fill-rule="evenodd" clip-rule="evenodd" d="M127.953 15.9407C136.547 15.9407 143.513 22.9071 143.513 31.5005C143.513 40.0938 136.547 47.0602 127.953 47.0602C119.36 47.0602 112.394 40.0938 112.394 31.5005C112.397 22.9071 119.36 15.9407 127.953 15.9407Z" fill="#F3868B"/>
<path fill-rule="evenodd" clip-rule="evenodd" d="M123.053 23.7109L136.208 31.5005L123.053 39.2933V23.7109Z" fill="white"/>
<path d="M407.207 56H317V128H407.207V56Z" fill="#71BDF8"/>
<path fill-rule="evenodd" clip-rule="evenodd" d="M350.394 105.027V82.9803L372.129 70.6078L377.31 67.5862V95.2773C377.99 98.0291 375.283 101.801 370.597 104.137C365.91 106.473 362.346 105.648 361.123 102.874C359.899 100.101 362.713 95.8222 366.166 94.101C369.618 92.3797 370.325 92.5308 372.129 92.4769V76.8561L355.58 86.2771V108.006C356.101 110.747 353.468 114.378 348.83 116.688C344.191 119.002 340.883 118.274 339.659 115.501C338.436 112.733 340.941 108.373 344.399 106.652C347.856 104.93 348.585 105.081 350.394 105.027Z" fill="white"/>
<defs>
<clipPath id="clip0_5_8417">
<rect width="406" height="309" fill="white" transform="translate(0 7)"/>
</clipPath>
</defs>
</svg>
