<svg width="785" height="552" viewBox="0 0 785 552" fill="none" xmlns="http://www.w3.org/2000/svg">
<path d="M56.9053 493.281V549.373H139.045H229.629V493.281H56.9053Z" fill="#F5F5F5"/>
<path d="M49.6659 477.605V493.281H235.676V477.605H139.045H49.6659Z" fill="#E1E1E1"/>
<path d="M142.671 549.373H229.629V493.281H235.676V477.605H139.045V491.835L142.671 549.373Z" fill="#E1E1E1"/>
<path d="M116.098 502.334H81.0691V510.779H116.098V502.334Z" fill="#E1E1E1"/>
<path d="M121.537 521.327H76.5551V539.153H121.537V521.327Z" fill="white"/>
<path d="M83.4781 421.574V477.678H165.618H256.202V421.574H83.4781Z" fill="#F5F5F5"/>
<path d="M76.2387 405.899V421.574H262.249V405.899H165.618H76.2387Z" fill="#E1E1E1"/>
<path d="M169.244 477.678H256.202V421.574H262.249V405.899H165.618V420.128L169.244 477.678Z" fill="#E1E1E1"/>
<path d="M142.671 430.627H107.642V439.073H142.671V430.627Z" fill="#E1E1E1"/>
<path d="M148.11 449.62H103.128V467.447H148.11V449.62Z" fill="white"/>
<path d="M651.935 440.13C651.826 440.276 650.865 439.705 649.806 438.854C648.748 438.003 647.981 437.201 648.091 437.056C648.2 436.91 649.161 437.481 650.22 438.331C651.278 439.182 652.045 439.984 651.935 440.13Z" fill="#1A2E35"/>
<path d="M680.856 396.955C681.027 392.921 681.148 388.789 679.871 384.949C678.593 381.122 675.637 377.598 671.682 376.771C667.168 375.836 662.533 378.691 660.002 382.543C657.471 386.395 656.595 391.074 655.853 395.619C650.694 426.945 648.796 458.819 650.183 490.535L668.665 493.123C676.793 459.998 679.384 431.041 680.856 396.955Z" fill="#37645C"/>
<path d="M669.115 376.638C669.127 376.638 669.103 376.747 669.03 376.929C668.945 377.16 668.847 377.428 668.726 377.768C668.422 378.546 668.008 379.615 667.497 380.952C667.241 381.644 666.901 382.398 666.621 383.26C666.341 384.123 666.049 385.059 665.721 386.055C665.392 387.064 665.051 388.133 664.686 389.263C664.382 390.418 664.066 391.645 663.737 392.921C662.338 398.037 661.182 404.258 660.172 411.197C659.175 418.136 658.518 425.827 657.994 433.908C657.045 450.082 656.899 464.773 656.486 475.394C656.291 480.704 656.109 485.006 655.902 487.971C655.804 489.405 655.731 490.547 655.671 491.385C655.634 491.738 655.61 492.029 655.598 492.272C655.573 492.467 655.561 492.576 655.549 492.576C655.537 492.576 655.537 492.467 655.525 492.272C655.525 492.029 655.537 491.738 655.537 491.385C655.561 490.547 655.598 489.405 655.646 487.971C655.768 485.006 655.877 480.704 656.023 475.394C656.315 464.773 656.388 450.094 657.337 433.884C657.848 425.791 658.53 418.087 659.564 411.124C660.623 404.173 661.827 397.94 663.287 392.812C663.64 391.536 663.969 390.308 664.285 389.154C664.674 388.024 665.027 386.954 665.368 385.946C665.708 384.949 666.025 384.014 666.317 383.163C666.609 382.313 666.974 381.559 667.254 380.867C667.825 379.542 668.276 378.485 668.604 377.719C668.75 377.391 668.872 377.124 668.969 376.905C669.054 376.723 669.103 376.638 669.115 376.638Z" fill="#1A2E35"/>
<path d="M670.819 376.65C670.819 376.65 671.95 377.816 673.082 380.466C674.25 383.102 674.98 387.295 674.773 392.411C674.286 402.618 673.361 416.677 672.157 432.195C670.928 447.725 669.577 461.748 668.482 471.894C667.935 476.961 667.46 481.069 667.12 483.9C666.949 485.273 666.803 486.355 666.706 487.157C666.657 487.497 666.609 487.776 666.584 488.007C666.548 488.202 666.536 488.299 666.524 488.299C666.511 488.299 666.511 488.202 666.524 488.007C666.536 487.776 666.56 487.497 666.584 487.157C666.657 486.355 666.755 485.261 666.876 483.888C667.156 480.984 667.546 476.901 668.032 471.858C669.006 461.699 670.283 447.664 671.512 432.146C672.729 416.629 673.714 402.569 674.323 392.398C674.59 387.319 673.933 383.2 672.863 380.563C671.804 377.914 670.746 376.698 670.819 376.65Z" fill="#1A2E35"/>
<path d="M683.643 424.442C683.582 424.612 682.012 424.211 680.138 423.543C678.265 422.875 676.792 422.194 676.853 422.012C676.914 421.842 678.484 422.243 680.357 422.911C682.231 423.579 683.703 424.272 683.643 424.442Z" fill="#1A2E35"/>
<path d="M685.869 405.619C685.942 405.789 684.446 406.616 682.535 407.466C680.625 408.317 679.007 408.876 678.934 408.718C678.861 408.548 680.358 407.722 682.268 406.871C684.178 406.02 685.796 405.461 685.869 405.619Z" fill="#1A2E35"/>
<path d="M684.713 390.26C684.701 390.442 683.472 390.503 681.951 390.405C680.443 390.296 679.226 390.065 679.238 389.883C679.25 389.701 680.479 389.64 682 389.737C683.509 389.847 684.726 390.077 684.713 390.26Z" fill="#1A2E35"/>
<path d="M665.635 380.417C665.477 380.514 664.674 379.505 663.822 378.169C662.983 376.832 662.423 375.666 662.569 375.568C662.727 375.471 663.53 376.48 664.382 377.816C665.234 379.165 665.794 380.32 665.635 380.417Z" fill="#1A2E35"/>
<path d="M659.333 389.713C659.333 389.895 658.153 390.017 656.705 389.992C655.257 389.956 654.089 389.786 654.089 389.604C654.089 389.421 655.269 389.3 656.717 389.324C658.165 389.348 659.333 389.531 659.333 389.713Z" fill="#1A2E35"/>
<path d="M654.807 408.293C654.734 408.463 653.505 408.123 652.045 407.539C650.585 406.956 649.465 406.336 649.526 406.166C649.599 405.996 650.828 406.336 652.288 406.92C653.748 407.515 654.867 408.123 654.807 408.293Z" fill="#1A2E35"/>
<path d="M654.32 423.92C654.357 424.102 653.31 424.466 651.972 424.746C650.633 425.025 649.526 425.111 649.49 424.928C649.453 424.746 650.5 424.381 651.838 424.102C653.164 423.822 654.284 423.737 654.32 423.92Z" fill="#1A2E35"/>
<path d="M652.191 449.475C652.227 449.657 651.108 450.009 649.697 450.252C648.285 450.507 647.117 450.568 647.081 450.386C647.044 450.204 648.163 449.851 649.575 449.608C650.986 449.365 652.154 449.304 652.191 449.475Z" fill="#1A2E35"/>
<path d="M650.779 463.595C650.865 463.753 649.928 464.421 648.699 465.065C647.458 465.721 646.387 466.11 646.302 465.952C646.217 465.794 647.154 465.126 648.383 464.482C649.624 463.826 650.694 463.425 650.779 463.595Z" fill="#1A2E35"/>
<path d="M662.314 479.61C662.156 479.696 661.34 478.578 660.501 477.107C659.661 475.637 659.102 474.373 659.26 474.276C659.418 474.191 660.233 475.309 661.073 476.779C661.912 478.249 662.472 479.513 662.314 479.61Z" fill="#1A2E35"/>
<path d="M665.648 452.986C665.781 453.12 664.869 454.214 663.628 455.429C662.387 456.644 661.267 457.531 661.146 457.397C661.024 457.264 661.924 456.17 663.165 454.955C664.407 453.74 665.514 452.865 665.648 452.986Z" fill="#1A2E35"/>
<path d="M664.905 439.024C664.771 439.146 663.932 438.465 663.032 437.493C662.131 436.521 661.511 435.634 661.645 435.512C661.778 435.391 662.618 436.071 663.518 437.043C664.419 438.016 665.039 438.903 664.905 439.024Z" fill="#1A2E35"/>
<path d="M667.193 421.186C667.327 421.307 666.572 422.364 665.514 423.555C664.443 424.746 663.47 425.609 663.336 425.487C663.202 425.366 663.956 424.309 665.015 423.118C666.086 421.927 667.059 421.064 667.193 421.186Z" fill="#1A2E35"/>
<path d="M668.482 408.232C668.349 408.366 667.302 407.539 666.134 406.385C664.966 405.23 664.115 404.198 664.248 404.064C664.37 403.93 665.429 404.757 666.597 405.911C667.765 407.065 668.616 408.11 668.482 408.232Z" fill="#1A2E35"/>
<path d="M671.013 390.734C671.171 390.831 670.636 391.997 669.833 393.358C669.03 394.707 668.239 395.74 668.081 395.643C667.923 395.546 668.458 394.379 669.261 393.018C670.076 391.657 670.855 390.636 671.013 390.734Z" fill="#1A2E35"/>
<path d="M675.771 374.511C675.929 374.596 675.466 375.775 674.724 377.136C673.982 378.497 673.264 379.53 673.094 379.445C672.936 379.36 673.398 378.181 674.14 376.82C674.882 375.459 675.612 374.426 675.771 374.511Z" fill="#1A2E35"/>
<path d="M681.173 381.875C681.246 382.045 680.516 382.556 679.518 383.029C678.532 383.503 677.656 383.759 677.583 383.588C677.51 383.418 678.24 382.908 679.238 382.434C680.236 381.96 681.1 381.717 681.173 381.875Z" fill="#1A2E35"/>
<path d="M681.307 440.13C681.27 440.3 679.591 440.069 677.693 439.255C675.783 438.441 674.457 437.396 674.554 437.25C674.651 437.092 676.099 437.87 677.948 438.647C679.798 439.437 681.355 439.948 681.307 440.13Z" fill="#1A2E35"/>
<path d="M679.104 452.476C679.141 452.658 678.021 453.023 676.622 453.29C675.211 453.557 674.043 453.63 674.006 453.46C673.97 453.278 675.089 452.913 676.488 452.646C677.9 452.367 679.068 452.294 679.104 452.476Z" fill="#1A2E35"/>
<path d="M676.391 473.632C676.282 473.766 674.87 472.806 673.58 471.165C672.279 469.537 671.658 467.933 671.816 467.86C671.987 467.775 672.838 469.184 674.104 470.752C675.333 472.332 676.513 473.486 676.391 473.632Z" fill="#1A2E35"/>
<path d="M646.667 483.305C646.545 483.171 647.3 482.332 648.346 481.433C649.392 480.546 650.329 479.926 650.451 480.072C650.573 480.206 649.818 481.044 648.772 481.944C647.726 482.831 646.789 483.438 646.667 483.305Z" fill="#1A2E35"/>
<path d="M638.126 437.128C636.921 433.374 634.67 428.999 630.716 428.95C628.38 428.914 626.275 430.591 625.168 432.657C624.073 434.722 623.598 437.116 623.671 439.449C624.121 454.894 626.798 472.55 632.152 488.627H646.582C646.399 470.764 643.577 454.141 638.126 437.128Z" fill="#37645C"/>
<path d="M612.015 413.506C609.995 405.449 603.973 401.087 596.989 400.686C590.613 401.804 588.131 408.074 587.377 414.502C586.623 420.93 588.618 427.322 590.589 433.483C596.928 453.266 603.255 473.049 609.594 492.844C615.58 492.187 621.566 491.543 627.553 490.887C621.871 464.372 618.598 439.802 612.015 413.506Z" fill="#37645C"/>
<path d="M630.716 428.95C630.777 428.999 630.12 429.594 629.487 430.992C628.866 432.389 628.562 434.625 628.806 437.371C629.085 440.106 629.402 443.411 629.864 447.032C630.339 450.653 630.984 454.627 631.799 458.758C633.429 467.046 635.266 474.47 636.434 479.89C637.031 482.6 637.469 484.799 637.748 486.318C637.87 487.023 637.967 487.594 638.053 488.08C638.114 488.481 638.138 488.7 638.113 488.7C638.089 488.7 638.028 488.493 637.919 488.104C637.809 487.63 637.663 487.059 637.493 486.367C637.104 484.763 636.593 482.612 635.972 479.987C634.695 474.604 632.784 467.192 631.142 458.88C630.327 454.724 629.694 450.738 629.256 447.093C629.025 445.27 628.879 443.532 628.72 441.916C628.587 440.3 628.416 438.793 628.331 437.396C628.136 434.613 628.514 432.292 629.244 430.883C629.986 429.473 630.716 428.95 630.716 428.95Z" fill="#1A2E35"/>
<path d="M597.257 400.175C597.317 400.224 596.295 401.087 595.091 403.092C593.874 405.073 592.597 408.305 592.353 412.473C592.073 416.641 593.01 421.599 594.58 426.909C596.161 432.244 597.889 438.101 599.702 444.249C603.279 456.547 606.528 467.665 608.888 475.807C610.02 479.805 610.944 483.062 611.601 485.395C611.894 486.476 612.125 487.351 612.307 488.007C612.465 488.603 612.526 488.931 612.514 488.931C612.49 488.943 612.38 488.627 612.186 488.044C611.979 487.387 611.699 486.537 611.358 485.468C610.652 483.147 609.655 479.914 608.438 475.941C606.017 467.823 602.72 456.717 599.057 444.444C597.257 438.283 595.541 432.426 593.984 427.079C592.438 421.732 591.538 416.689 591.879 412.449C592.183 408.195 593.558 404.927 594.86 402.958C596.161 400.965 597.257 400.175 597.257 400.175Z" fill="#1A2E35"/>
<path d="M623.635 488.967C623.61 488.979 623.476 488.676 623.233 488.104C623.002 487.533 622.613 486.695 622.211 485.577C621.359 483.377 620.252 480.121 619.121 476.05C617.977 471.979 616.858 467.07 615.775 461.59C614.728 456.097 613.597 450.07 612.392 443.751C611.139 437.432 609.752 431.466 608.134 426.131C606.528 420.797 604.715 416.106 602.902 412.315C601.089 408.511 599.361 405.571 598.059 403.602C597.439 402.594 596.879 401.877 596.551 401.342C596.198 400.832 596.028 400.552 596.052 400.54C596.064 400.528 596.283 400.783 596.66 401.269C597.025 401.767 597.621 402.472 598.278 403.456C599.653 405.388 601.454 408.317 603.328 412.108C605.214 415.9 607.075 420.602 608.73 425.949C610.385 431.296 611.796 437.286 613.049 443.617C614.23 449.948 615.361 455.976 616.383 461.468C617.429 466.948 618.5 471.858 619.583 475.929C620.654 479.999 621.676 483.256 622.467 485.492C622.832 486.61 623.172 487.46 623.367 488.056C623.562 488.651 623.659 488.955 623.635 488.967Z" fill="#1A2E35"/>
<path d="M590.917 430.53C590.966 430.712 589.981 431.101 588.74 431.393C587.486 431.697 586.44 431.794 586.404 431.624C586.355 431.442 587.34 431.053 588.581 430.761C589.822 430.445 590.869 430.348 590.917 430.53Z" fill="#1A2E35"/>
<path d="M589.007 418.281C588.995 418.464 587.645 418.536 585.978 418.609C584.311 418.67 582.96 418.707 582.936 418.524C582.912 418.342 584.262 418.014 585.953 417.953C587.657 417.88 589.019 418.111 589.007 418.281Z" fill="#1A2E35"/>
<path d="M591.039 407.102C590.917 407.235 589.944 406.604 588.861 405.692C587.778 404.769 586.987 403.918 587.109 403.772C587.231 403.639 588.204 404.27 589.287 405.182C590.37 406.105 591.149 406.968 591.039 407.102Z" fill="#1A2E35"/>
<path d="M596.514 396.761C596.697 396.797 596.648 397.672 596.624 398.729C596.587 399.787 596.587 400.661 596.405 400.686C596.234 400.722 595.93 399.835 595.967 398.705C595.991 397.575 596.344 396.712 596.514 396.761Z" fill="#1A2E35"/>
<path d="M607.708 401.634C607.854 401.743 607.416 402.618 606.722 403.602C606.029 404.586 605.348 405.303 605.202 405.194C605.056 405.085 605.494 404.21 606.187 403.225C606.881 402.241 607.562 401.524 607.708 401.634Z" fill="#1A2E35"/>
<path d="M614.972 414.235C615.045 414.405 614.108 414.94 612.891 415.438C611.674 415.936 610.628 416.203 610.567 416.033C610.494 415.863 611.431 415.328 612.648 414.83C613.865 414.332 614.899 414.065 614.972 414.235Z" fill="#1A2E35"/>
<path d="M619.376 427.201C619.449 427.359 618.22 428.063 616.529 428.44C614.838 428.829 613.427 428.72 613.427 428.549C613.414 428.367 614.765 428.173 616.383 427.796C618.001 427.444 619.303 427.03 619.376 427.201Z" fill="#1A2E35"/>
<path d="M599.142 423.519C598.972 423.47 599.094 422.571 599.422 421.514C599.751 420.469 600.164 419.654 600.335 419.715C600.505 419.764 600.383 420.663 600.055 421.72C599.726 422.765 599.313 423.579 599.142 423.519Z" fill="#1A2E35"/>
<path d="M601.965 439.802C601.795 439.729 602.16 438.526 602.78 437.104C603.401 435.682 604.034 434.601 604.204 434.674C604.374 434.747 604.009 435.95 603.389 437.371C602.768 438.781 602.135 439.875 601.965 439.802Z" fill="#1A2E35"/>
<path d="M594.993 444.261C594.92 444.432 593.789 444.128 592.402 443.69C591.027 443.253 589.908 442.864 589.956 442.682C589.993 442.512 591.197 442.621 592.609 443.058C594.008 443.496 595.066 444.091 594.993 444.261Z" fill="#1A2E35"/>
<path d="M599.009 457.531C599.118 457.677 598.339 458.406 597.293 459.159C596.234 459.913 595.298 460.399 595.188 460.253C595.079 460.107 595.857 459.378 596.904 458.625C597.962 457.871 598.911 457.385 599.009 457.531Z" fill="#1A2E35"/>
<path d="M602.233 470.764C602.281 470.946 601.32 471.323 600.104 471.615C598.887 471.906 597.865 472.004 597.816 471.833C597.767 471.651 598.729 471.274 599.945 470.983C601.174 470.691 602.196 470.594 602.233 470.764Z" fill="#1A2E35"/>
<path d="M619.729 438.259C619.826 438.417 619.011 439.061 617.819 439.498C616.639 439.948 615.592 439.996 615.568 439.826C615.531 439.644 616.468 439.316 617.588 438.89C618.719 438.465 619.644 438.101 619.729 438.259Z" fill="#1A2E35"/>
<path d="M622.236 458.855C622.163 459.026 621.189 458.722 620.07 458.199C618.95 457.677 618.111 457.118 618.184 456.948C618.257 456.778 619.23 457.081 620.35 457.604C621.469 458.126 622.309 458.685 622.236 458.855Z" fill="#1A2E35"/>
<path d="M626.64 473.583C626.579 473.753 625.289 473.413 623.781 472.818C622.272 472.222 621.092 471.603 621.165 471.432C621.226 471.262 622.515 471.603 624.024 472.198C625.545 472.793 626.713 473.413 626.64 473.583Z" fill="#1A2E35"/>
<path d="M602.939 485.127C602.853 484.957 604.021 484.167 605.384 483.098C606.747 482.029 607.793 481.081 607.939 481.202C608.073 481.312 607.209 482.515 605.798 483.62C604.386 484.726 603.024 485.285 602.939 485.127Z" fill="#1A2E35"/>
<path d="M614.607 477.642C614.424 477.666 614.169 476.67 613.719 475.528C613.281 474.373 612.794 473.474 612.952 473.365C613.086 473.255 613.852 474.045 614.339 475.297C614.814 476.524 614.789 477.618 614.607 477.642Z" fill="#1A2E35"/>
<path d="M611.516 459.913C611.407 460.059 610.652 459.706 609.837 459.111C609.01 458.515 608.438 457.92 608.535 457.774C608.645 457.628 609.399 457.981 610.214 458.576C611.042 459.171 611.626 459.767 611.516 459.913Z" fill="#1A2E35"/>
<path d="M638.71 432.146C638.819 432.292 638.089 433.021 637.067 433.762C636.057 434.504 635.145 434.99 635.035 434.844C634.926 434.698 635.656 433.969 636.678 433.228C637.688 432.487 638.6 432 638.71 432.146Z" fill="#1A2E35"/>
<path d="M642.81 443.338C642.822 443.52 641.678 443.751 640.255 443.605C638.831 443.459 637.761 442.973 637.822 442.803C637.87 442.621 638.977 442.803 640.328 442.949C641.678 443.095 642.798 443.144 642.81 443.338Z" fill="#1A2E35"/>
<path d="M625.192 445.841C625.229 446.011 624.17 446.4 622.795 446.485C621.42 446.582 620.313 446.339 620.325 446.169C620.337 445.987 621.42 445.926 622.747 445.829C624.073 445.744 625.156 445.659 625.192 445.841Z" fill="#1A2E35"/>
<path d="M626.701 435.269C626.689 435.439 625.618 435.476 624.438 434.929C623.258 434.394 622.576 433.556 622.698 433.434C622.819 433.289 623.635 433.847 624.705 434.334C625.788 434.82 626.725 435.075 626.701 435.269Z" fill="#1A2E35"/>
<path d="M644.319 455.344C644.221 455.502 643.126 454.979 641.861 454.189C640.596 453.399 639.659 452.634 639.756 452.476C639.853 452.318 640.948 452.84 642.214 453.63C643.467 454.42 644.416 455.198 644.319 455.344Z" fill="#1A2E35"/>
<path d="M687.293 486.743H593.314V503.379H687.293V486.743Z" fill="#FF735D"/>
<path d="M600.335 500.086L611.772 549.798H667.777L680.284 500.086H600.335Z" fill="#FF735D"/>
<path d="M687.244 503.403C687.244 503.586 666.049 503.731 639.902 503.731C613.743 503.731 592.56 503.586 592.56 503.403C592.56 503.221 613.755 503.075 639.902 503.075C666.049 503.075 687.244 503.221 687.244 503.403Z" fill="#1A2E35"/>
<path d="M634.987 446.206C634.828 446.303 634.184 445.549 633.551 444.541C632.918 443.52 632.517 442.621 632.675 442.524C632.833 442.427 633.466 443.18 634.11 444.189C634.743 445.209 635.133 446.109 634.987 446.206Z" fill="#1A2E35"/>
<path d="M635.023 459.597C634.853 459.536 635.072 458.406 635.51 457.069C635.96 455.733 636.459 454.7 636.629 454.748C636.799 454.809 636.58 455.939 636.142 457.276C635.692 458.612 635.193 459.645 635.023 459.597Z" fill="#1A2E35"/>
<path d="M639.61 473.644C639.44 473.717 638.746 472.599 638.041 471.141C637.335 469.67 636.909 468.431 637.067 468.346C637.238 468.273 637.931 469.391 638.637 470.849C639.33 472.32 639.768 473.571 639.61 473.644Z" fill="#1A2E35"/>
<path d="M629.682 484.945C629.548 484.824 630.108 483.961 630.935 483.001C631.762 482.041 632.553 481.372 632.687 481.494C632.821 481.616 632.261 482.478 631.434 483.438C630.607 484.386 629.816 485.067 629.682 484.945Z" fill="#1A2E35"/>
<path d="M627.601 464.421C627.565 464.603 626.664 464.591 625.581 464.397C624.499 464.202 623.647 463.911 623.671 463.728C623.708 463.546 624.608 463.558 625.691 463.753C626.774 463.947 627.625 464.239 627.601 464.421Z" fill="#1A2E35"/>
<path d="M784.13 550.114C784.13 550.284 608.584 550.43 392.083 550.43C175.51 550.43 -6.10352e-05 550.284 -6.10352e-05 550.114C-6.10352e-05 549.944 175.51 549.798 392.083 549.798C608.584 549.798 784.13 549.944 784.13 550.114Z" fill="#1A2E35"/>
<path d="M255.257 286.509H15.9671C10.6866 286.509 6.3916 282.232 6.3916 276.946V136.109C6.3916 130.835 10.6744 126.545 15.9671 126.545H255.257C260.537 126.545 264.832 130.823 264.832 136.109V276.958C264.832 282.232 260.549 286.509 255.257 286.509Z" fill="#1A2E35"/>
<path d="M135.618 228.364C146.49 228.364 155.304 219.561 155.304 208.702C155.304 197.844 146.49 189.041 135.618 189.041C124.745 189.041 115.932 197.844 115.932 208.702C115.932 219.561 124.745 228.364 135.618 228.364Z" fill="#FF735D"/>
<path d="M130.873 214.45V202.845C130.873 202.286 131.481 201.922 131.98 202.201L142.358 208.046C142.857 208.326 142.857 209.055 142.358 209.334L131.98 215.094C131.481 215.374 130.873 215.021 130.873 214.45Z" fill="white"/>
<path d="M21.1746 268.136V268.549H19.2279V268.221L20.2742 267.225C20.5297 266.982 20.5784 266.824 20.5784 266.678C20.5784 266.435 20.4081 266.301 20.0917 266.301C19.8362 266.301 19.6172 266.386 19.4712 266.581L19.1305 266.313C19.3374 266.034 19.7024 265.876 20.1282 265.876C20.7001 265.876 21.0651 266.167 21.0651 266.629C21.0651 266.884 20.9921 267.115 20.6271 267.455L19.9214 268.124H21.1746V268.136Z" fill="white"/>
<path d="M21.4423 266.836C21.4423 266.653 21.5761 266.52 21.7465 266.52C21.9168 266.52 22.0506 266.641 22.0506 266.836C22.0506 267.018 21.9168 267.152 21.7465 267.152C21.5761 267.14 21.4423 267.006 21.4423 266.836ZM21.4423 268.27C21.4423 268.075 21.5761 267.954 21.7465 267.954C21.9168 267.954 22.0506 268.075 22.0506 268.27C22.0506 268.452 21.9168 268.586 21.7465 268.586C21.5761 268.573 21.4423 268.44 21.4423 268.27Z" fill="white"/>
<path d="M23.2795 265.912V268.549H22.7928V266.325H22.2331V265.912H23.2795Z" fill="white"/>
<path d="M26.1631 267.954H25.7007V268.549H25.2262V267.954H23.7783V267.613L25.0802 265.912H25.6034L24.3745 267.541H25.2384V267.006H25.7007V267.541H26.1631V267.954Z" fill="white"/>
<path d="M230.618 266.896H30.4702V267.808H230.618V266.896Z" fill="white"/>
<path d="M92.8629 265.912H30.312V268.343H92.8629V265.912Z" fill="#FF735D"/>
<path d="M94.8826 267.358C94.8826 269.035 93.5199 270.396 91.8408 270.396C90.1618 270.396 88.7991 269.035 88.7991 267.358C88.7991 265.681 90.1618 264.32 91.8408 264.32C93.5199 264.308 94.8826 265.669 94.8826 267.358Z" fill="#FF735D"/>
<path d="M235.655 267.322C235.655 267.844 235.23 268.172 234.694 268.172C233.976 268.172 233.551 267.711 233.551 266.86C233.551 265.961 234.074 265.463 234.84 265.463C235.108 265.463 235.351 265.523 235.534 265.633L235.351 265.997C235.205 265.9 235.035 265.864 234.852 265.864C234.354 265.864 234.037 266.167 234.037 266.775C234.195 266.593 234.451 266.495 234.743 266.495C235.266 266.52 235.655 266.836 235.655 267.322ZM235.181 267.346C235.181 267.067 234.974 266.897 234.658 266.897C234.341 266.897 234.122 267.091 234.122 267.346C234.122 267.589 234.317 267.796 234.67 267.796C234.974 267.796 235.181 267.626 235.181 267.346Z" fill="white"/>
<path d="M235.899 266.423C235.899 266.24 236.033 266.107 236.203 266.107C236.373 266.107 236.507 266.228 236.507 266.423C236.507 266.605 236.373 266.739 236.203 266.739C236.033 266.739 235.899 266.605 235.899 266.423ZM235.899 267.856C235.899 267.662 236.033 267.541 236.203 267.541C236.373 267.541 236.507 267.662 236.507 267.856C236.507 268.039 236.373 268.172 236.203 268.172C236.033 268.172 235.899 268.039 235.899 267.856Z" fill="white"/>
<path d="M236.823 266.824C236.823 265.961 237.298 265.463 237.919 265.463C238.551 265.463 239.026 265.949 239.026 266.824C239.026 267.686 238.551 268.185 237.919 268.185C237.298 268.185 236.823 267.686 236.823 266.824ZM238.539 266.824C238.539 266.192 238.296 265.888 237.931 265.888C237.578 265.888 237.322 266.18 237.322 266.824C237.322 267.455 237.566 267.747 237.931 267.747C238.284 267.759 238.539 267.455 238.539 266.824Z" fill="white"/>
<path d="M239.354 266.824C239.354 265.961 239.829 265.463 240.449 265.463C241.082 265.463 241.557 265.949 241.557 266.824C241.557 267.686 241.082 268.185 240.449 268.185C239.829 268.185 239.354 267.686 239.354 266.824ZM241.07 266.824C241.07 266.192 240.826 265.888 240.461 265.888C240.109 265.888 239.853 266.18 239.853 266.824C239.853 267.455 240.096 267.747 240.461 267.747C240.826 267.759 241.07 267.455 241.07 266.824Z" fill="white"/>
<path d="M245.827 266.666H244.915V264.029H247.543V264.94H245.827V266.666Z" fill="white"/>
<path d="M247.543 270.092H244.915V267.468H245.827V269.181H247.543V270.092Z" fill="white"/>
<path d="M251.728 270.092H249.1V269.181H250.816V267.468H251.728V270.092Z" fill="white"/>
<path d="M251.728 266.653H250.816V264.94H249.1V264.029H251.728V266.653Z" fill="white"/>
<path d="M217.673 142.099C217.636 142.063 218.135 142.027 219.072 141.978C220.009 141.929 221.408 141.869 223.111 141.844H223.367V142.099C223.379 144.141 223.403 146.474 223.428 149.002L223.44 149.767L222.892 149.22C222.661 148.989 222.418 148.746 222.162 148.491C221.53 147.859 220.909 147.24 220.313 146.644L220.739 146.656C219.717 147.556 218.743 148.418 217.843 149.208L217.368 149.621L217.381 149.002C217.405 146.875 217.466 145.113 217.527 143.91C217.587 142.707 217.636 142.051 217.673 142.099C217.709 142.136 217.758 142.877 217.806 144.092C217.855 145.308 217.916 146.997 217.952 149.002L217.49 148.795C218.378 147.993 219.327 147.118 220.337 146.195L220.556 146L220.763 146.207C221.359 146.802 221.98 147.422 222.612 148.054C222.856 148.297 223.111 148.552 223.342 148.783L222.807 149.002C222.831 146.474 222.856 144.129 222.868 142.099L223.123 142.355C221.53 142.33 220.203 142.27 219.242 142.221C218.281 142.172 217.709 142.136 217.673 142.099Z" fill="white"/>
<path d="M237.7 142.962C237.76 142.938 237.262 143.546 236.349 144.651C235.449 145.757 234.11 147.385 232.48 149.208L231.957 149.791V149.002C231.957 147.92 231.945 146.778 231.945 145.575V145.235L232.042 145.465C231.202 144.651 230.387 143.861 229.633 143.12L229.097 142.598L229.852 142.61C232.224 142.646 234.268 142.744 235.643 142.816C236.994 142.901 237.76 142.938 237.7 142.962C237.639 142.987 236.751 143.011 235.339 143.072C233.928 143.132 232.03 143.217 229.827 143.217L230.034 142.707C230.801 143.436 231.616 144.214 232.468 145.028L232.565 145.125V145.259V145.599C232.565 146.79 232.553 147.944 232.553 149.026L232.03 148.819C233.563 147.142 234.95 145.745 235.972 144.7C236.994 143.643 237.627 142.987 237.7 142.962Z" fill="white"/>
<path d="M237.7 142.962C237.773 143.12 236.605 143.764 235.096 144.396C233.587 145.028 232.322 145.405 232.249 145.247C232.176 145.089 233.344 144.445 234.852 143.813C236.349 143.181 237.627 142.792 237.7 142.962Z" fill="white"/>
<path d="M247.458 142.099C247.458 142.063 247.798 141.99 248.431 142.099C249.039 142.209 249.964 142.573 250.706 143.485C251.436 144.36 251.886 145.866 251.363 147.361C250.876 148.844 249.307 150.132 247.47 150.12C245.62 150.132 244.051 148.844 243.576 147.361C243.041 145.866 243.491 144.36 244.233 143.485C244.963 142.573 245.888 142.209 246.508 142.099C247.105 141.99 247.458 142.063 247.458 142.099C247.458 142.16 247.117 142.16 246.545 142.343C245.985 142.513 245.182 142.914 244.574 143.764C243.966 144.578 243.637 145.903 244.112 147.167C244.562 148.418 245.9 149.5 247.458 149.488C249.015 149.5 250.353 148.418 250.803 147.167C251.29 145.903 250.962 144.578 250.341 143.764C249.733 142.926 248.93 142.525 248.37 142.343C247.798 142.16 247.445 142.148 247.458 142.099Z" fill="white"/>
<path d="M248.759 147.592C248.638 147.714 247.798 147.082 246.898 146.17L246.801 146.073V145.939V145.915C246.801 144.627 246.947 143.57 247.117 143.57C247.287 143.57 247.433 144.615 247.433 145.915V145.939L247.336 145.721C248.248 146.632 248.881 147.458 248.759 147.592Z" fill="white"/>
<path d="M153.844 147.337C153.844 147.507 127.283 147.653 94.5298 147.653C61.7639 147.653 35.2154 147.507 35.2154 147.337C35.2154 147.167 61.7639 147.021 94.5298 147.021C127.283 147.021 153.844 147.155 153.844 147.337Z" fill="white"/>
<path d="M24.9342 152.015C27.5213 152.015 29.6185 149.921 29.6185 147.337C29.6185 144.753 27.5213 142.658 24.9342 142.658C22.3471 142.658 20.2499 144.753 20.2499 147.337C20.2499 149.921 22.3471 152.015 24.9342 152.015Z" fill="white"/>
<path d="M674.067 172.855H496.586C491.306 172.855 487.011 168.578 487.011 163.292V60.708C487.011 55.4342 491.293 51.1447 496.586 51.1447H674.067C679.347 51.1447 683.642 55.4221 683.642 60.708V163.304C683.642 168.578 679.347 172.855 674.067 172.855Z" fill="#F5F5F5"/>
<path d="M647.762 62.9804C647.677 62.9196 649.258 62.7981 651.899 62.7252L652.142 62.713L652.154 62.9804C652.191 64.475 652.215 66.2735 652.215 68.2299V68.9954L651.68 68.4608C651.509 68.2906 651.315 68.0962 651.132 67.9139C650.658 67.4279 650.183 66.9661 649.733 66.5043L650.159 66.5165C649.38 67.197 648.65 67.841 647.957 68.4486L647.482 68.8618L647.494 68.242C647.555 64.9489 647.689 62.8832 647.762 62.9804C647.835 63.0776 647.969 65.2284 648.042 68.2299L647.579 68.0233C648.261 67.4036 648.979 66.7352 649.745 66.0426L649.964 65.8482L650.171 66.0547C650.633 66.5043 651.096 66.9783 651.582 67.4522C651.777 67.6466 651.959 67.8289 652.13 67.999L651.595 68.2177C651.595 66.2613 651.619 64.4507 651.655 62.9682L651.911 63.2234C649.514 63.1627 647.847 63.0411 647.762 62.9804Z" fill="#1A2E35"/>
<path d="M662.995 63.6366C663.056 63.6123 662.691 64.0619 662.01 64.9125C661.34 65.7509 660.318 67.0269 659.077 68.4364L658.554 69.0319V68.242C658.554 67.4157 658.542 66.5408 658.542 65.6416V65.3864L658.639 65.6173C658.007 64.9975 657.386 64.4021 656.802 63.831L656.267 63.3085L657.021 63.3206C658.846 63.3449 660.428 63.4543 661.462 63.5272C662.496 63.5758 663.056 63.6123 662.995 63.6366C662.934 63.6609 662.241 63.6852 661.17 63.7459C660.087 63.8067 658.664 63.8917 657.009 63.9039L657.216 63.3935C657.8 63.9525 658.42 64.5358 659.077 65.1555L659.175 65.2527V65.3864V65.6416C659.175 66.553 659.162 67.4279 659.162 68.242L658.639 68.0354C659.795 66.7717 660.854 65.7509 661.644 64.9611C662.435 64.1712 662.934 63.6609 662.995 63.6366Z" fill="#1A2E35"/>
<path d="M662.995 63.6366C663.068 63.7945 662.192 64.3171 661.048 64.791C659.905 65.2649 658.919 65.5322 658.858 65.3621C658.785 65.2041 659.661 64.6816 660.805 64.1955C661.949 63.7338 662.922 63.4786 662.995 63.6366Z" fill="#1A2E35"/>
<path d="M670.417 62.9804C670.417 62.9439 670.685 62.871 671.159 62.9561C671.634 63.029 672.352 63.3085 672.923 64.0011C673.495 64.6816 673.848 65.8482 673.447 67.0026C673.082 68.157 671.853 69.1656 670.417 69.1534C668.981 69.1656 667.752 68.157 667.387 67.0026C666.974 65.8482 667.327 64.6695 667.911 64.0011C668.482 63.2963 669.2 63.029 669.675 62.9561C670.149 62.871 670.417 62.9439 670.417 62.9804C670.417 63.029 670.161 63.0533 669.736 63.187C669.322 63.3206 668.714 63.6366 668.263 64.2685C667.813 64.876 667.57 65.8603 667.935 66.8081C668.263 67.7438 669.261 68.5337 670.417 68.5215C671.573 68.5337 672.558 67.7317 672.899 66.8081C673.264 65.8725 673.021 64.8882 672.571 64.2685C672.12 63.6366 671.524 63.3206 671.098 63.187C670.672 63.0533 670.417 63.029 670.417 62.9804Z" fill="#1A2E35"/>
<path d="M671.415 67.1605C671.293 67.282 670.636 66.8203 669.942 66.1398L669.845 66.0426V65.9089V65.8968C669.845 64.9125 669.991 64.1105 670.161 64.1105C670.332 64.1105 670.478 64.9125 670.478 65.8968V65.9089L670.38 65.6902C671.086 66.3828 671.536 67.039 671.415 67.1605Z" fill="#1A2E35"/>
<path d="M599.203 66.9661C599.203 67.1362 578.994 67.282 554.076 67.282C529.145 67.282 508.936 67.1362 508.936 66.9661C508.936 66.796 529.145 66.6502 554.076 66.6502C578.994 66.6502 599.203 66.7838 599.203 66.9661Z" fill="#1A2E35"/>
<path d="M504.677 66.9661C504.677 68.9347 503.083 70.5265 501.112 70.5265C499.141 70.5265 497.547 68.9347 497.547 66.9661C497.547 64.9975 499.141 63.4057 501.112 63.4057C503.083 63.4057 504.677 64.9975 504.677 66.9661Z" fill="#1A2E35"/>
<path d="M674.067 172.855C674.067 172.819 674.615 172.867 675.661 172.685C676.683 172.491 678.265 172.078 679.883 170.802C681.489 169.562 683.144 167.375 683.484 164.361C683.606 161.372 683.497 157.872 683.521 153.959C683.497 138.272 683.46 115.585 683.423 87.5509C683.411 80.5395 683.411 73.1999 683.399 65.5444C683.375 63.6487 683.448 61.668 683.35 59.7724C683.144 57.8889 682.377 56.0297 681.087 54.5836C679.822 53.1133 678.058 52.0682 676.135 51.6429C675.162 51.4242 674.189 51.3999 673.154 51.4121C672.132 51.4121 671.11 51.4121 670.076 51.4121C653.565 51.4242 635.935 51.4364 617.381 51.4364C580.259 51.4485 539.463 51.4485 496.623 51.4607C494.019 51.4364 491.476 52.5908 489.748 54.5107C487.984 56.4185 487.181 59.019 487.351 61.6316C487.351 66.9175 487.351 72.167 487.351 77.3679C487.351 87.7818 487.351 98.0499 487.351 108.136C487.351 118.222 487.351 128.137 487.339 137.834C487.339 142.683 487.339 147.483 487.339 152.234C487.339 154.604 487.339 156.961 487.339 159.318C487.339 160.497 487.339 161.664 487.339 162.83C487.327 163.985 487.437 165.103 487.802 166.172C488.483 168.323 490.004 170.158 491.914 171.276C492.875 171.834 493.922 172.223 495.004 172.418C496.075 172.624 497.207 172.551 498.35 172.564C502.877 172.564 507.33 172.564 511.734 172.576C520.531 172.576 529.06 172.588 537.321 172.588C553.832 172.6 569.199 172.612 583.24 172.624C611.309 172.661 634.025 172.697 649.733 172.722C657.581 172.746 663.664 172.77 667.813 172.782C669.869 172.794 671.439 172.807 672.51 172.819C673.519 172.831 674.067 172.855 674.067 172.855C674.067 172.855 673.519 172.88 672.461 172.892C671.39 172.904 669.821 172.904 667.764 172.928C663.616 172.94 657.532 172.965 649.684 172.989C633.977 173.013 611.261 173.05 583.191 173.086C569.15 173.098 553.783 173.11 537.273 173.123C529.024 173.123 520.482 173.135 511.685 173.135C507.293 173.135 502.828 173.135 498.302 173.147C497.182 173.135 496.026 173.208 494.858 172.989C493.703 172.782 492.583 172.369 491.573 171.774C489.541 170.583 487.923 168.639 487.205 166.354C486.828 165.224 486.706 163.997 486.719 162.83C486.719 161.664 486.719 160.497 486.719 159.318C486.719 156.973 486.719 154.616 486.719 152.234C486.719 147.483 486.719 142.683 486.719 137.834C486.719 128.125 486.719 118.222 486.707 108.136C486.707 98.0499 486.707 87.7818 486.707 77.3679C486.707 72.1548 486.707 66.9054 486.707 61.6316C486.67 60.3313 486.755 58.8974 487.205 57.6215C487.631 56.3213 488.349 55.1183 489.262 54.0976C491.099 52.0561 493.824 50.8166 496.598 50.8409C539.426 50.8531 580.235 50.8531 617.356 50.8652C635.911 50.8774 653.553 50.8895 670.052 50.8895C671.086 50.8895 672.108 50.8895 673.13 50.8895C674.14 50.8774 675.211 50.9138 676.221 51.1326C678.253 51.5943 680.114 52.7001 681.44 54.2434C682.803 55.7745 683.618 57.7187 683.825 59.7116C683.922 61.7045 683.849 63.6123 683.874 65.5322C683.861 73.1877 683.861 80.5273 683.849 87.5388C683.801 115.573 683.776 138.26 683.752 153.947C683.716 157.872 683.801 161.348 683.655 164.373C683.29 167.436 681.586 169.647 679.944 170.887C678.289 172.163 676.683 172.564 675.649 172.734C675.126 172.819 674.724 172.843 674.456 172.843C674.201 172.867 674.067 172.855 674.067 172.855Z" fill="#1A2E35"/>
<path d="M350.204 407.077C349 406.81 339.181 452.889 340.458 470.813C341.736 488.736 350.204 551.025 350.204 551.025H451.094C451.094 551.025 463.711 490.438 461.46 472.101C459.209 453.752 447.224 405.498 447.224 405.498L350.204 407.077Z" fill="#1A2E35"/>
<path d="M337.295 319.95L322.877 255.122L322.038 244.392C322.038 244.392 318.74 220.332 318.716 217.974C318.692 215.252 317.378 214.62 316.368 214.693C314.81 214.815 313.715 216.747 313.667 219.08C313.654 219.882 313.886 232.617 313.886 232.617C313.886 232.617 313.289 231.572 311.379 229.202C309.469 226.845 305.028 225.52 300.478 225.727C295.939 225.921 294.686 226.383 294.674 228.145C294.674 228.85 295.075 229.421 295.586 229.846C296.414 230.551 297.509 230.879 298.592 230.843C305.868 230.624 307.875 234.488 307.875 234.488L307.985 235.898C307.985 235.898 303.519 232.787 300.015 234.16C299.443 234.379 298.993 234.695 298.616 235.047C296.681 235.084 294.796 236.165 293.81 237.83C292.788 239.555 292.764 241.852 293.774 243.59C294.26 244.428 295.136 245.194 296.073 244.987C296.572 244.878 296.973 244.525 297.351 244.197C297.557 244.027 297.764 243.845 297.995 243.711L298.847 247.6C298.847 247.6 301.244 256.24 301.852 260.116L305.709 324.374C306.245 333.281 313.995 340.025 322.901 339.332C332.623 338.579 339.4 329.429 337.295 319.95Z" fill="#FFBF9D"/>
<path d="M320.772 254.271C319.446 254.648 318.059 253.688 317.329 252.521C316.599 251.342 316.283 249.957 315.638 248.742C313.703 245.084 309.092 243.383 307.34 239.628C307.096 239.106 306.95 238.389 307.413 238.036C307.839 237.708 308.447 237.964 308.922 238.207C312.949 240.37 316.976 242.545 321.003 244.708" fill="#FFBF9D"/>
<path d="M320.991 244.708C321.016 244.659 320.578 244.367 319.762 243.869C318.947 243.371 317.743 242.678 316.258 241.84C314.701 240.977 312.937 239.993 311.014 238.924C310.515 238.656 310.004 238.377 309.493 238.085C308.995 237.854 308.435 237.332 307.51 237.55C307.048 237.672 306.744 238.17 306.731 238.583C306.707 238.996 306.804 239.349 306.938 239.689C307.23 240.309 307.571 240.88 307.997 241.415C309.688 243.553 311.842 244.89 313.411 246.445C314.202 247.211 314.871 248.013 315.346 248.864C315.808 249.702 316.1 250.601 316.465 251.391C317.11 253.019 318.314 254.101 319.288 254.356C320.286 254.636 320.821 254.307 320.797 254.283C320.784 254.21 320.249 254.417 319.385 254.064C318.521 253.736 317.536 252.764 316.976 251.172C316.66 250.395 316.404 249.495 315.918 248.56C315.443 247.624 314.737 246.749 313.922 245.935C312.316 244.295 310.175 242.934 308.617 240.941C308.228 240.455 307.912 239.908 307.656 239.385C307.425 238.863 307.449 238.34 307.753 238.279C308.07 238.17 308.63 238.462 309.141 238.753C309.664 239.033 310.175 239.3 310.674 239.568C312.632 240.588 314.421 241.524 315.991 242.338C317.511 243.116 318.752 243.736 319.616 244.149C320.468 244.55 320.967 244.756 320.991 244.708Z" fill="#FF9A6C"/>
<path d="M308.179 235.971C308.082 235.995 308.24 234.865 307.315 233.528C306.865 232.872 306.087 232.277 305.077 231.949C304.067 231.608 302.887 231.499 301.633 231.487C300.38 231.462 299.139 231.462 298.032 231.207C296.937 230.952 295.976 230.515 295.343 229.907C294.686 229.299 294.528 228.497 294.601 228.036C294.662 227.55 294.82 227.331 294.832 227.331C294.881 227.343 294.796 227.598 294.796 228.048C294.796 228.485 294.978 229.142 295.586 229.652C296.183 230.162 297.095 230.551 298.129 230.77C299.176 230.989 300.368 230.976 301.646 231.001C302.911 231.013 304.164 231.134 305.247 231.523C306.33 231.9 307.169 232.605 307.62 233.346C308.082 234.075 308.228 234.78 308.252 235.254C308.277 235.716 308.204 235.971 308.179 235.971Z" fill="#FF9A6C"/>
<path d="M313.715 218.181C313.788 218.181 313.788 219.153 313.776 220.708C313.776 222.446 313.776 224.512 313.776 226.796C313.813 229.081 313.837 231.159 313.873 232.884C313.91 234.44 313.922 235.412 313.849 235.412C313.776 235.412 313.642 234.452 313.521 232.896C313.399 231.341 313.302 229.178 313.277 226.784C313.265 224.402 313.326 222.239 313.423 220.672C313.521 219.141 313.642 218.181 313.715 218.181Z" fill="#FF9A6C"/>
<path d="M305.332 238.875C305.32 238.911 305.052 238.79 304.59 238.595C304.14 238.425 303.385 238.146 302.631 238.523C302.266 238.705 302.023 239.094 301.986 239.592C301.925 240.078 302.035 240.625 302.12 241.232C302.205 241.828 302.266 242.581 301.84 243.225C301.427 243.857 300.684 244.222 299.906 244.258C299.115 244.282 298.397 243.918 297.898 243.42C297.399 242.909 297.059 242.314 296.937 241.658C296.742 240.418 296.827 239.325 296.949 238.401C297.083 237.49 297.314 236.761 297.57 236.299C297.825 235.837 298.068 235.655 298.081 235.679C298.117 235.716 297.935 235.922 297.752 236.384C297.57 236.846 297.387 237.55 297.302 238.45C297.229 239.337 297.18 240.43 297.387 241.573C297.606 242.618 298.616 243.796 299.881 243.76C300.502 243.748 301.098 243.432 301.414 242.97C301.731 242.496 301.719 241.889 301.646 241.305C301.573 240.722 301.463 240.127 301.56 239.543C301.621 238.972 301.986 238.413 302.461 238.219C303.422 237.806 304.237 238.207 304.663 238.437C305.125 238.668 305.344 238.838 305.332 238.875Z" fill="#FF9A6C"/>
<path d="M298.105 243.031C298.129 243.031 298.202 243.298 298.044 243.748C297.886 244.185 297.436 244.817 296.584 245.072C295.745 245.315 294.601 245.06 293.786 244.246C292.97 243.432 292.52 242.192 292.508 240.904C292.496 239.616 292.91 238.401 293.567 237.49C294.212 236.578 295.063 235.983 295.818 235.643C296.584 235.302 297.253 235.193 297.716 235.169C298.178 235.144 298.434 235.205 298.434 235.229C298.446 235.327 297.387 235.242 295.976 235.959C295.282 236.323 294.516 236.894 293.944 237.745C293.372 238.583 292.995 239.701 293.019 240.88C293.031 242.059 293.433 243.177 294.126 243.894C294.808 244.623 295.781 244.878 296.511 244.708C297.241 244.538 297.691 244.027 297.886 243.65C298.056 243.286 298.068 243.019 298.105 243.031Z" fill="#FF9A6C"/>
<path d="M306.975 251.44C306.975 251.391 307.425 251.294 308.191 251.44C308.946 251.586 310.017 252.023 310.868 253.019L310.442 253.153C310.491 252.618 310.576 252.047 310.71 251.452C311.416 248.171 313.192 246.008 313.277 246.105C313.411 246.178 311.878 248.39 311.197 251.549C311.075 252.12 310.978 252.679 310.917 253.19L310.844 253.761L310.479 253.323C309.749 252.424 308.788 251.95 308.106 251.731C307.425 251.513 306.975 251.5 306.975 251.44Z" fill="#FF9A6C"/>
<path d="M306.5 229.773C306.622 229.834 306.135 230.745 305.028 231.244C303.921 231.742 302.911 231.487 302.947 231.365C302.96 231.219 303.86 231.232 304.821 230.782C305.795 230.357 306.379 229.688 306.5 229.773Z" fill="#FF9A6C"/>
<path d="M452.931 264.904C458.211 264.904 470.902 279.874 473.116 302.647C474.126 313.073 479.358 355.761 481.888 376.285C482.801 383.686 479.589 390.977 473.542 395.363C459.878 405.267 432.539 420.857 396.159 420.42L374.113 401.962L445.655 371.85L445.691 370.222L448.806 366.807L439.876 312.125C439.9 312.125 431.553 264.904 452.931 264.904Z" fill="#FF4F5B"/>
<path d="M434.315 168.724C434.583 176.124 444.45 180.596 444.329 187.996C444.28 191.168 442.297 194.023 441.92 197.171C441.396 201.412 443.769 205.409 444.645 209.59C446.446 218.193 441.433 227.282 433.999 231.985C426.565 236.7 417.233 237.599 408.509 236.408" fill="#1A2E35"/>
<path d="M374.709 166.901C375.001 170.875 372.373 174.411 369.732 177.4C367.092 180.389 364.148 183.476 363.576 187.425C362.566 194.412 369.404 200.889 367.993 207.803C367.238 211.51 364.196 214.487 363.661 218.229C363.138 221.851 365.085 225.387 367.482 228.145C369.891 230.904 372.677 230.503 374.806 233.467C377.045 236.603 380.658 239.823 384.041 241.67C391.706 245.862 400.917 239.798 404.615 238.705" fill="#1A2E35"/>
<path d="M435.8 172.977C435.897 169.38 432.563 166.597 429.217 165.273C425.859 163.948 422.136 163.462 419.143 161.445C416.491 159.659 414.714 156.888 412.475 154.616C406.976 149.05 398.386 146.741 390.83 148.795C383.274 150.849 377.045 157.204 375.147 164.787C373.857 169.915 374.733 175.978 378.785 179.381C383.481 183.33 390.441 182.455 396.464 181.228C402.486 180 409.288 178.785 414.313 182.309C417.342 184.436 419.082 187.899 420.931 191.107C422.781 194.315 425.105 197.584 428.609 198.787C432.113 199.99 436.87 197.912 437.004 194.218" fill="#1A2E35"/>
<path d="M387.886 256.835C387.837 248.572 387.788 240.528 387.788 240.564C387.788 240.564 374.648 238.352 371.959 221.219C370.621 212.7 371.083 198.738 371.825 187.316C372.494 177.048 379.344 164.446 389.589 165.552L421.588 173.706C424.703 174.046 427.039 176.707 426.966 179.83L424.034 257.406C423.657 267.249 415.468 274.977 405.601 274.783C395.806 274.601 387.947 266.629 387.886 256.835Z" fill="#FFBF9D"/>
<path d="M377.276 197.11C377.227 198.264 378.176 199.261 379.393 199.334C380.598 199.406 381.62 198.519 381.668 197.353C381.717 196.198 380.768 195.202 379.551 195.129C378.335 195.068 377.313 195.955 377.276 197.11Z" fill="#1A2E35"/>
<path d="M374.843 194.594C375.11 194.886 376.789 193.659 379.15 193.671C381.51 193.647 383.25 194.874 383.506 194.582C383.627 194.449 383.36 193.938 382.605 193.379C381.863 192.832 380.598 192.298 379.113 192.298C377.641 192.298 376.4 192.845 375.682 193.391C374.964 193.95 374.709 194.473 374.843 194.594Z" fill="#1A2E35"/>
<path d="M400.26 197.705C400.211 198.86 401.16 199.856 402.377 199.929C403.581 200.002 404.603 199.115 404.652 197.948C404.701 196.794 403.752 195.797 402.535 195.725C401.318 195.664 400.296 196.551 400.26 197.705Z" fill="#1A2E35"/>
<path d="M398.106 195.093C398.374 195.384 400.053 194.157 402.413 194.169C404.774 194.145 406.513 195.372 406.769 195.081C406.891 194.947 406.623 194.437 405.869 193.878C405.126 193.331 403.861 192.796 402.377 192.796C400.904 192.796 399.663 193.343 398.946 193.89C398.228 194.449 397.972 194.959 398.106 195.093Z" fill="#1A2E35"/>
<path d="M389.48 212.603C389.492 212.47 388.02 212.214 385.635 211.898C385.026 211.838 384.455 211.716 384.357 211.303C384.211 210.865 384.467 210.221 384.759 209.517C385.331 208.058 385.927 206.527 386.56 204.923C389.054 198.386 390.867 193.003 390.599 192.905C390.331 192.808 388.093 198.021 385.598 204.571C385.002 206.187 384.418 207.718 383.871 209.189C383.639 209.869 383.25 210.647 383.554 211.558C383.712 212.008 384.163 212.336 384.552 212.445C384.941 212.567 385.282 212.567 385.574 212.591C387.983 212.725 389.467 212.737 389.48 212.603Z" fill="#1A2E35"/>
<path d="M387.788 240.564C387.788 240.564 399.323 241.33 410.772 234.5C410.577 234.537 404.445 246.409 388.007 244.61L387.788 240.564Z" fill="#FF9A6C"/>
<path d="M390.465 218.302C391.317 217.184 392.813 216.565 394.298 216.735C395.32 216.844 396.366 217.342 396.987 218.181C397.607 219.019 397.741 220.198 397.169 221C396.524 221.899 395.198 222.106 394.067 221.778C392.935 221.45 391.962 220.708 391.049 219.967C390.794 219.76 390.538 219.542 390.38 219.262C390.222 218.983 390.185 218.618 390.38 218.387" fill="#FF4F5B"/>
<path d="M396.439 214.256C396.05 214.231 396.05 216.795 393.835 218.618C391.633 220.441 388.896 220.149 388.883 220.502C388.847 220.66 389.492 221 390.648 221.036C391.779 221.073 393.434 220.72 394.784 219.602C396.123 218.485 396.707 217.002 396.804 215.945C396.901 214.876 396.622 214.231 396.439 214.256Z" fill="#1A2E35"/>
<path d="M397.06 190.949C397.291 191.593 399.651 191.289 402.425 191.629C405.212 191.909 407.45 192.735 407.815 192.152C407.986 191.873 407.596 191.277 406.684 190.645C405.783 190.025 404.36 189.43 402.693 189.236C401.026 189.053 399.505 189.309 398.483 189.722C397.473 190.135 396.95 190.645 397.06 190.949Z" fill="#1A2E35"/>
<path d="M375.731 187.753C376.144 188.288 377.775 187.741 379.734 187.717C381.693 187.632 383.36 188.081 383.737 187.522C383.907 187.255 383.639 186.708 382.922 186.198C382.204 185.687 381.011 185.274 379.661 185.311C378.31 185.347 377.142 185.833 376.461 186.38C375.779 186.939 375.548 187.498 375.731 187.753Z" fill="#1A2E35"/>
<path d="M428.852 231.013C424.131 231.961 423.718 229.567 420.189 226.298C416.661 223.029 414.848 218.011 415.444 213.247C415.979 209.043 418.243 204.765 416.782 200.78C414.848 195.518 407.462 193.902 405.504 188.64C404.36 185.59 405.382 182.018 404.092 179.028C402.876 176.209 399.919 174.593 397.023 173.548C394.14 172.503 391.049 171.786 388.628 169.902C386.207 168.019 384.698 164.471 386.255 161.834C399.055 163.365 411.66 166.427 423.73 170.923C426.528 171.968 429.473 173.22 431.127 175.711C432.879 178.336 432.794 181.738 432.648 184.885C431.93 200.269 431.213 215.641 430.495 231.025" fill="#1A2E35"/>
<path d="M439.632 196.077C440.18 190.426 444.779 185.42 450.364 184.399C455.948 183.379 462.032 186.441 464.538 191.52C466.923 196.356 466.095 202.25 463.869 207.159C461.229 212.992 455.802 218.327 449.402 218.035C443.367 217.768 438.513 212.469 436.785 206.697C435.045 200.925 435.751 194.74 436.469 188.75" fill="#1A2E35"/>
<path d="M442.99 219.53C443.015 219.554 443.404 219.262 443.891 218.533C444.377 217.816 444.937 216.65 445.168 215.106C445.424 213.575 445.375 211.704 445.01 209.699C444.657 207.682 443.976 205.567 443.489 203.331C442.99 201.096 442.747 198.908 443.112 196.988C443.465 195.081 444.365 193.464 444.755 191.958C445.193 190.451 445.132 189.126 444.852 188.3C444.584 187.449 444.207 187.109 444.183 187.133C444.122 187.17 444.402 187.571 444.56 188.373C444.73 189.175 444.706 190.402 444.231 191.812C443.793 193.234 442.844 194.813 442.418 196.867C441.993 198.908 442.224 201.217 442.735 203.502C443.246 205.786 443.939 207.888 444.317 209.833C444.706 211.777 444.803 213.575 444.621 215.046C444.317 218.047 442.844 219.457 442.99 219.53Z" fill="#375A64"/>
<path d="M443.246 198.969C443.185 199.018 444 200.209 445.874 201.545C447.723 202.882 450.753 204.243 454.306 204.304C457.858 204.364 460.937 203.101 462.823 201.837C464.745 200.573 465.597 199.407 465.536 199.358C465.451 199.261 464.465 200.269 462.543 201.387C460.645 202.493 457.688 203.611 454.318 203.55C450.948 203.489 448.027 202.274 446.166 201.096C444.28 199.917 443.331 198.872 443.246 198.969Z" fill="#375A64"/>
<path d="M444.098 201.655C444.025 201.691 444.45 202.797 445.545 204.34C446.64 205.883 448.502 207.815 451.008 209.322C453.515 210.817 456.094 211.57 457.968 211.801C459.854 212.044 461.034 211.898 461.022 211.825C461.022 211.704 459.866 211.655 458.053 211.279C456.24 210.914 453.795 210.112 451.386 208.678C448.977 207.22 447.127 205.446 445.959 204.024C444.791 202.59 444.207 201.594 444.098 201.655Z" fill="#375A64"/>
<path d="M439.778 225.265C439.79 225.277 439.851 225.204 439.961 225.046C440.07 224.888 440.253 224.682 440.435 224.366C440.825 223.746 441.287 222.75 441.567 221.377C441.847 220.016 441.871 218.242 441.287 216.322C440.752 214.402 439.413 212.348 437.296 210.963C435.264 209.529 432.612 208.532 430.933 206.248C430.093 205.13 429.74 203.684 429.996 202.226C430.227 200.755 430.896 199.309 431.492 197.778C432.806 194.704 432.819 190.876 431.273 187.547C430.495 185.894 429.339 184.351 427.794 183.233C426.261 182.078 424.387 181.471 422.537 181.058C420.676 180.632 418.827 180.389 417.111 179.867C415.395 179.356 413.753 178.591 412.561 177.388C411.344 176.197 410.821 174.556 410.589 172.892C410.358 171.239 410.237 169.514 409.786 167.91C408.947 164.702 407.316 161.846 405.163 159.804C403.009 157.751 400.369 156.56 397.875 156.195C395.368 155.807 393.02 156.268 391.244 157.192C389.455 158.103 388.214 159.367 387.411 160.509C386.62 161.664 386.243 162.709 386.073 163.413C385.89 164.13 385.902 164.519 385.902 164.519C386.012 164.568 386.036 162.915 387.655 160.679C388.47 159.598 389.699 158.407 391.438 157.569C393.154 156.718 395.405 156.305 397.802 156.718C400.187 157.107 402.705 158.273 404.737 160.254C406.781 162.235 408.339 164.981 409.129 168.08C409.555 169.635 409.665 171.263 409.896 172.989C410.115 174.69 410.687 176.561 412.049 177.898C413.376 179.235 415.128 180.049 416.904 180.584C418.705 181.13 420.566 181.374 422.379 181.787C424.192 182.2 425.956 182.771 427.368 183.84C428.803 184.873 429.886 186.319 430.616 187.862C432.076 190.998 432.101 194.582 430.86 197.535C430.288 199.042 429.607 200.524 429.363 202.128C429.071 203.72 429.509 205.422 430.446 206.612C432.32 209.067 435.045 210.027 437.016 211.4C439.073 212.713 440.338 214.608 440.91 216.443C441.506 218.278 441.518 219.991 441.299 221.328C440.812 224.038 439.657 225.217 439.778 225.265Z" fill="#375A64"/>
<path d="M438.622 177.449C438.622 177.449 438.781 177.206 438.829 176.659C438.89 176.124 438.805 175.273 438.257 174.386C437.722 173.499 436.773 172.564 435.386 172.017C433.987 171.482 432.247 171.494 430.458 171.859C428.658 172.199 426.796 172.916 424.752 173.305C422.744 173.694 420.36 173.742 418.547 172.333C416.722 170.947 415.809 168.554 414.872 166.172C413.96 163.742 412.658 161.287 410.906 159.124C407.414 154.774 402.669 151.797 397.924 150.739C395.551 150.229 393.154 150.278 391.074 150.922C388.993 151.566 387.241 152.744 386.061 154.166C384.844 155.576 384.26 157.253 384.163 158.711C384.041 160.181 384.333 161.445 384.734 162.381C385.136 163.328 385.647 163.96 386.024 164.337C386.401 164.714 386.645 164.859 386.657 164.847C386.742 164.774 385.72 164.13 385.002 162.271C384.661 161.348 384.43 160.133 384.576 158.747C384.71 157.362 385.294 155.831 386.462 154.518C387.606 153.206 389.273 152.112 391.256 151.529C393.227 150.946 395.502 150.922 397.778 151.432C402.328 152.477 406.927 155.393 410.31 159.61C412.013 161.724 413.254 164.057 414.179 166.463C415.128 168.821 416.065 171.361 418.121 172.916C419.119 173.694 420.347 174.083 421.503 174.18C422.671 174.289 423.803 174.143 424.861 173.949C426.978 173.511 428.816 172.77 430.556 172.406C432.271 172.029 433.926 171.98 435.228 172.442C436.53 172.904 437.454 173.767 437.99 174.569C438.537 175.383 438.659 176.173 438.659 176.683C438.683 177.169 438.586 177.436 438.622 177.449Z" fill="#375A64"/>
<path d="M454.44 265.147L424.034 257.418H387.776C387.776 257.418 368.978 258.5 358.514 267.723C358.235 267.978 354.974 270.919 352.808 277.043L336.699 313.875L328.425 267.686L299.492 271.794L304.164 351.277C305.868 368.192 318.327 382.057 334.971 385.569L351.433 367.087C353.331 382.167 355.023 395.096 355.193 394.926C355.594 394.525 445.326 389.081 445.326 389.081L436.238 358.41L454.44 265.147Z" fill="#FF4F5B"/>
<path d="M354.84 335.432C354.816 335.456 354.451 335.079 353.927 334.314C353.392 333.548 352.772 332.321 352.309 330.705C351.348 327.472 351.47 322.66 353.076 317.824C354.706 313 356.835 308.941 358.028 305.867C358.648 304.336 359.086 303.084 359.378 302.209C359.658 301.334 359.816 300.848 359.865 300.86C359.901 300.872 359.828 301.383 359.622 302.282C359.415 303.181 359.025 304.481 358.454 306.037C357.359 309.172 355.29 313.279 353.684 318.031C352.102 322.782 351.92 327.436 352.747 330.595C353.514 333.779 354.974 335.359 354.84 335.432Z" fill="#1A2E35"/>
<path d="M438.866 304.056C438.89 304.056 438.951 304.263 439.036 304.676C439.133 305.162 439.255 305.757 439.401 306.486C439.705 308.163 440.131 310.424 440.642 313.182C441.652 318.845 443.002 326.67 444.414 335.322C445.825 343.986 447.03 351.836 447.809 357.535C448.198 360.379 448.478 362.7 448.66 364.292C448.721 365.033 448.782 365.64 448.818 366.139C448.843 366.564 448.855 366.783 448.831 366.783C448.806 366.783 448.758 366.564 448.685 366.151C448.612 365.665 448.514 365.057 448.405 364.316C448.149 362.639 447.784 360.367 447.358 357.596C446.434 351.836 445.168 344.035 443.781 335.419C442.382 326.804 441.129 319.003 440.192 313.243C439.766 310.472 439.413 308.2 439.158 306.511C439.06 305.77 438.975 305.162 438.902 304.676C438.854 304.287 438.841 304.056 438.866 304.056Z" fill="#1A2E35"/>
<path d="M335.92 336.622C335.823 336.61 335.957 335.322 336.127 333.232C336.31 331.154 336.504 328.274 336.589 325.091C336.675 321.907 336.614 319.027 336.553 316.937C336.492 314.847 336.431 313.559 336.516 313.547C336.602 313.534 336.808 314.822 336.991 316.913C337.173 319.003 337.295 321.907 337.222 325.115C337.137 328.323 336.857 331.215 336.565 333.293C336.273 335.359 335.993 336.635 335.92 336.622Z" fill="#1A2E35"/>
<path d="M459.55 374.864C459.452 374.888 459.27 374.062 458.686 372.883C458.114 371.704 457.068 370.161 455.462 368.97C453.855 367.779 452.067 367.232 450.777 367.038C449.475 366.831 448.636 366.904 448.624 366.795C448.611 366.722 449.451 366.491 450.826 366.588C452.189 366.673 454.123 367.184 455.839 368.46C457.554 369.736 458.613 371.425 459.087 372.701C459.598 374.001 459.623 374.864 459.55 374.864Z" fill="#1A2E35"/>
<path d="M452.87 378.46C452.688 378.546 451.787 376.395 449.707 374.511C447.663 372.603 445.436 371.862 445.509 371.68C445.521 371.522 447.967 372.02 450.132 374.049C452.335 376.042 453.028 378.436 452.87 378.46Z" fill="#1A2E35"/>
<path d="M430.47 378.473C430.41 378.302 433.865 376.893 438.063 375.034C442.272 373.187 445.631 371.571 445.716 371.741C445.801 371.886 442.54 373.758 438.318 375.617C434.096 377.488 430.519 378.631 430.47 378.473Z" fill="#1A2E35"/>
<path d="M312.146 327.241C312.146 327.241 329.606 410.346 329.606 409.265C329.606 408.268 417.78 413.044 433.561 413.737L436.846 412.935L461.74 390.053L433.111 387.744L422.866 329.271L312.146 327.241Z" fill="#E1E1E1"/>
<path d="M422.866 329.271C423.036 329.246 426.309 347.948 430.166 371.048C434.023 394.16 437.016 412.91 436.846 412.935C436.676 412.959 433.403 394.258 429.546 371.157C425.677 348.057 422.684 329.295 422.866 329.271Z" fill="#375A64"/>
<path d="M423.182 329.307C423.195 329.319 422.988 329.55 422.55 329.927C422.124 330.316 421.43 330.838 420.725 331.652C420.42 332.053 420.007 332.612 420.226 333.196C420.396 333.864 420.493 334.569 420.639 335.347C420.907 336.89 421.223 338.64 421.564 340.572C422.89 348.385 424.715 359.054 426.723 370.841C428.658 382.653 430.41 393.334 431.699 401.147C432.295 404.975 432.782 408.098 433.135 410.346C433.281 411.379 433.403 412.218 433.488 412.849C433.561 413.421 433.597 413.724 433.573 413.724C433.549 413.724 433.476 413.433 433.366 412.862C433.245 412.23 433.086 411.403 432.892 410.371C432.49 408.135 431.943 405.024 431.261 401.208C429.935 393.395 428.11 382.726 426.102 370.939C424.168 359.139 422.416 348.458 421.138 340.633C420.834 338.7 420.554 336.951 420.311 335.395C420.177 334.63 420.104 333.888 419.958 333.256C419.727 332.491 420.238 331.895 420.566 331.482C421.321 330.656 422.039 330.17 422.489 329.818C422.927 329.489 423.17 329.295 423.182 329.307Z" fill="#375A64"/>
<path d="M419.958 332.345C419.958 332.369 419.581 332.382 418.875 332.382C418.109 332.382 417.075 332.369 415.761 332.369C412.999 332.333 409.093 332.272 404.311 332.211C394.59 332.041 381.255 331.81 366.533 331.543C351.798 331.3 338.463 331.069 328.742 330.911C323.948 330.838 320.054 330.778 317.292 330.741C315.978 330.717 314.944 330.692 314.178 330.668C313.46 330.644 313.095 330.62 313.095 330.607C313.095 330.583 313.472 330.571 314.178 330.547C314.944 330.535 315.978 330.522 317.292 330.498C319.994 330.462 323.911 330.462 328.754 330.474C338.427 330.498 351.786 330.656 366.545 330.923C381.303 331.191 394.663 331.507 404.323 331.774C409.117 331.92 413.011 332.053 415.773 332.139C417.087 332.199 418.121 332.236 418.887 332.272C419.581 332.296 419.958 332.321 419.958 332.345Z" fill="#375A64"/>
<path d="M433.026 390.114C433.026 390.077 433.634 390.065 434.717 390.102C435.921 390.15 437.479 390.211 439.34 390.284C443.258 390.466 448.685 390.758 454.756 391.122L455.535 391.171L454.938 391.681C454.586 391.985 454.196 392.301 453.819 392.629C448.928 396.773 444.487 400.504 441.238 403.177C439.681 404.453 438.379 405.498 437.381 406.312C436.457 407.041 435.933 407.43 435.909 407.393C435.885 407.357 436.347 406.907 437.223 406.118C438.197 405.267 439.45 404.149 440.946 402.824C444.11 400.066 448.514 396.287 453.405 392.131C453.795 391.803 454.172 391.487 454.525 391.183L454.707 391.742C448.636 391.366 443.209 391.001 439.304 390.697C437.442 390.539 435.885 390.418 434.692 390.32C433.622 390.235 433.026 390.15 433.026 390.114Z" fill="#375A64"/>
<path d="M356.324 411.817L355.193 398.28C355.193 398.28 359.707 397.636 360.035 402.63V394.258C360.035 394.258 365.194 393.127 366.326 399.896C367.457 406.664 369.075 410.322 369.075 410.322L371.813 411.817L369.234 396.19C369.234 396.19 374.721 396.676 375.682 401.828C376.656 406.98 378.116 410.601 378.116 410.601L386.779 413.02C386.779 413.02 381.802 408.584 382.289 407.138C382.776 405.692 382.447 405.777 383.42 405.571C384.394 405.364 386.56 405.996 388.044 406.786C389.626 407.624 398.751 413.02 398.751 413.02V419.703C398.751 419.703 377.507 421.234 372.713 420.347L363.418 418.196C360.108 417.431 357.419 415.025 356.324 411.817Z" fill="#FFBF9D"/>
<path d="M376.619 367.366C377.215 370.926 375.098 374.244 371.91 374.766C368.71 375.301 365.644 372.846 365.06 369.286C364.464 365.726 366.581 362.408 369.769 361.886C372.957 361.351 376.023 363.806 376.619 367.366Z" fill="#FAFAFA"/>
<g opacity="0.4">
<path opacity="0.4" d="M448.745 366.455C452.335 365.312 456.362 365.264 459.805 366.783C463.248 368.314 466.01 371.534 466.521 375.265C466.643 376.127 466.643 377.027 466.339 377.841C466.035 378.655 465.402 379.384 464.575 379.639C463.224 380.052 461.788 379.129 461.022 377.95C460.255 376.771 459.963 375.35 459.452 374.037C457.725 369.638 453.174 366.491 448.441 366.406C448.636 366.455 448.831 366.503 449.013 366.564" fill="black"/>
</g>
<path d="M384.734 261.975C385.464 259.691 384.807 257.236 384.406 254.866C384.004 252.509 383.956 249.799 385.562 248.025C387.156 246.263 389.808 246.032 392.193 245.935C402.012 245.51 411.831 245.084 421.649 244.659C423.657 244.574 425.981 244.623 427.246 246.19C428.049 247.187 428.609 248.572 428.28 249.799C426.772 255.401 427.246 260.116 429.436 264.065" fill="#FF4F5B"/>
<path d="M424.642 259.168C424.667 259.205 424.204 259.581 423.353 260.25C422.477 260.869 421.187 261.781 419.471 262.704C416.077 264.563 410.979 266.556 405.041 267.103C402.085 267.395 399.238 267.334 396.682 266.945C394.14 266.544 391.889 265.803 390.185 264.843C388.458 263.919 387.29 262.789 386.608 261.951C386.255 261.526 386.024 261.185 385.89 260.93C385.744 260.687 385.671 260.553 385.696 260.541C385.805 260.42 386.961 262.704 390.404 264.454C392.083 265.341 394.286 266.009 396.78 266.374C399.274 266.726 402.085 266.763 404.98 266.483C410.808 265.949 415.858 264.053 419.265 262.315C422.696 260.578 424.569 259.071 424.642 259.168Z" fill="#1A2E35"/>
<path d="M404.53 267.2C404.445 267.212 404.153 265.973 403.764 263.956C403.374 261.939 402.876 259.156 402.365 256.057C402.121 254.526 401.89 253.056 401.671 251.695C401.464 250.346 401.428 249.046 401.793 248.013C402.158 246.992 402.815 246.336 403.338 246.044C403.873 245.753 404.214 245.765 404.226 245.801C404.238 245.85 403.922 245.923 403.472 246.251C403.034 246.567 402.486 247.211 402.219 248.147C401.939 249.082 402.012 250.285 402.243 251.598C402.474 252.959 402.73 254.417 402.985 255.948C403.496 259.034 403.922 261.841 404.202 263.871C404.494 265.924 404.628 267.188 404.53 267.2Z" fill="#1A2E35"/>
<path d="M419.849 262.546C419.763 262.558 419.557 261.538 419.301 259.873C419.046 258.208 418.717 255.911 418.413 253.372C418.084 250.844 417.902 248.487 417.659 246.883C417.5 246.093 417.099 245.57 416.734 245.315C416.369 245.06 416.101 245.036 416.113 244.987C416.113 244.951 416.405 244.878 416.868 245.097C417.318 245.303 417.865 245.899 418.097 246.761C418.474 248.463 418.705 250.735 419.046 253.287C419.362 255.826 419.605 258.135 419.751 259.812C419.885 261.489 419.934 262.534 419.849 262.546Z" fill="#1A2E35"/>
<path d="M391.816 245.971C391.864 246.081 390.794 246.324 389.832 247.624C389.358 248.256 388.944 249.131 388.75 250.164C388.555 251.197 388.543 252.375 388.652 253.627C388.883 256.13 389.09 258.415 389.2 260.055C389.309 261.708 389.334 262.729 389.248 262.741C389.163 262.753 388.981 261.744 388.762 260.104C388.543 258.463 388.263 256.203 388.032 253.676C387.934 252.412 387.947 251.16 388.19 250.054C388.433 248.936 388.932 248.013 389.492 247.357C390.635 245.996 391.84 245.899 391.816 245.971Z" fill="#1A2E35"/>
<path d="M259.194 313H175.989V379.648H259.194V313Z" fill="#F7AAAC"/>
<path fill-rule="evenodd" clip-rule="evenodd" d="M231.437 342.078L251.382 372.542H237.461H211.493H184.358L210.91 331.986L224.477 352.708L231.437 342.078ZM237.196 323.304C241.321 323.304 244.664 326.647 244.664 330.776C244.664 334.901 241.321 338.244 237.196 338.244C233.071 338.244 229.724 334.901 229.724 330.776C229.724 326.647 233.067 323.304 237.196 323.304Z" fill="white"/>
<path d="M675.504 101H631V136.648H675.504V101Z" fill="#F7AAAC"/>
<path fill-rule="evenodd" clip-rule="evenodd" d="M660.658 116.553L671.326 132.848H663.88H649.99H635.476L649.678 111.155L656.935 122.239L660.658 116.553ZM663.738 106.511C665.944 106.511 667.733 108.299 667.733 110.508C667.733 112.714 665.944 114.502 663.738 114.502C661.532 114.502 659.741 112.714 659.741 110.508C659.741 108.299 661.529 106.511 663.738 106.511Z" fill="white"/>
<path d="M590.267 99.3159C590.267 99.4861 570.058 99.6319 545.14 99.6319C520.21 99.6319 500 99.4861 500 99.3159C500 99.1458 520.21 99 545.14 99C570.058 99 590.267 99.1337 590.267 99.3159Z" fill="#1A2E35"/>
<path d="M590.267 102.316C590.267 102.486 570.058 102.632 545.14 102.632C520.21 102.632 500 102.486 500 102.316C500 102.146 520.21 102 545.14 102C570.058 102 590.267 102.134 590.267 102.316Z" fill="#1A2E35"/>
<path d="M590.267 105.316C590.267 105.486 570.058 105.632 545.14 105.632C520.21 105.632 500 105.486 500 105.316C500 105.146 520.21 105 545.14 105C570.058 105 590.267 105.134 590.267 105.316Z" fill="#1A2E35"/>
<path d="M590.267 108.316C590.267 108.486 570.058 108.632 545.14 108.632C520.21 108.632 500 108.486 500 108.316C500 108.146 520.21 108 545.14 108C570.058 108 590.267 108.134 590.267 108.316Z" fill="#1A2E35"/>
<path d="M590.267 111.316C590.267 111.486 570.058 111.632 545.14 111.632C520.21 111.632 500 111.486 500 111.316C500 111.146 520.21 111 545.14 111C570.058 111 590.267 111.134 590.267 111.316Z" fill="#1A2E35"/>
<path d="M590.267 114.316C590.267 114.486 570.058 114.632 545.14 114.632C520.21 114.632 500 114.486 500 114.316C500 114.146 520.21 114 545.14 114C570.058 114 590.267 114.134 590.267 114.316Z" fill="#1A2E35"/>
<path d="M590.267 117.316C590.267 117.486 570.058 117.632 545.14 117.632C520.21 117.632 500 117.486 500 117.316C500 117.146 520.21 117 545.14 117C570.058 117 590.267 117.134 590.267 117.316Z" fill="#1A2E35"/>
<path d="M590.267 120.316C590.267 120.486 570.058 120.632 545.14 120.632C520.21 120.632 500 120.486 500 120.316C500 120.146 520.21 120 545.14 120C570.058 120 590.267 120.134 590.267 120.316Z" fill="#1A2E35"/>
<path d="M590.267 123.316C590.267 123.486 570.058 123.632 545.14 123.632C520.21 123.632 500 123.486 500 123.316C500 123.146 520.21 123 545.14 123C570.058 123 590.267 123.134 590.267 123.316Z" fill="#1A2E35"/>
<path d="M590.267 126.316C590.267 126.486 570.058 126.632 545.14 126.632C520.21 126.632 500 126.486 500 126.316C500 126.146 520.21 126 545.14 126C570.058 126 590.267 126.134 590.267 126.316Z" fill="#1A2E35"/>
<path d="M590.267 129.316C590.267 129.486 570.058 129.632 545.14 129.632C520.21 129.632 500 129.486 500 129.316C500 129.146 520.21 129 545.14 129C570.058 129 590.267 129.134 590.267 129.316Z" fill="#1A2E35"/>
<path d="M590.267 132.316C590.267 132.486 570.058 132.632 545.14 132.632C520.21 132.632 500 132.486 500 132.316C500 132.146 520.21 132 545.14 132C570.058 132 590.267 132.134 590.267 132.316Z" fill="#1A2E35"/>
<path d="M590.267 135.316C590.267 135.486 570.058 135.632 545.14 135.632C520.21 135.632 500 135.486 500 135.316C500 135.146 520.21 135 545.14 135C570.058 135 590.267 135.134 590.267 135.316Z" fill="#1A2E35"/>
<path fill-rule="evenodd" clip-rule="evenodd" d="M519.14 417.398C538.184 417.398 553.619 432.833 553.619 451.877C553.619 470.921 538.184 486.356 519.14 486.356C500.096 486.356 484.661 470.921 484.661 451.877C484.661 432.833 500.096 417.398 519.14 417.398Z" fill="#F7AAAC"/>
<path fill-rule="evenodd" clip-rule="evenodd" d="M508.278 434.611L537.427 451.877L508.278 469.142V434.611Z" fill="white"/>
<path d="M443.036 0H304.986V101.899H443.036V0Z" fill="#F7AAAC"/>
<path fill-rule="evenodd" clip-rule="evenodd" d="M372.007 25.4656C385.735 25.4656 396.864 36.5945 396.864 50.3227C396.864 64.0508 385.735 75.1797 372.007 75.1797C358.279 75.1797 347.15 64.0508 347.15 50.3227C347.155 36.5945 358.279 25.4656 372.007 25.4656Z" fill="#F3868B"/>
<path fill-rule="evenodd" clip-rule="evenodd" d="M364.179 37.8787L385.194 50.3227L364.179 62.7719V37.8787Z" fill="white"/>
<path d="M708 215H534V355H708V215Z" fill="#71BDF8"/>
<path fill-rule="evenodd" clip-rule="evenodd" d="M598.478 309.941V267.579L640.727 243.806L650.798 238V291.207C652.121 296.494 646.858 303.741 637.749 308.231C628.639 312.72 621.711 311.134 619.333 305.805C616.955 300.476 622.425 292.254 629.135 288.947C635.846 285.639 637.221 285.93 640.727 285.826V255.812L608.559 273.914V315.664C609.572 320.931 604.454 327.908 595.438 332.346C586.421 336.794 579.99 335.394 577.612 330.065C575.233 324.746 580.103 316.369 586.824 313.062C593.545 309.755 594.962 310.045 598.478 309.941Z" fill="white"/>
<path d="M341.895 168.095C341.655 167.336 341.013 166.787 340.229 166.677L323.728 164.258L316.355 149.165C316.006 148.451 315.298 148 314.503 148C313.708 148 313 148.451 312.652 149.165L305.267 164.258L288.767 166.677C287.982 166.787 287.34 167.336 287.1 168.095C286.861 168.853 287.057 169.678 287.623 170.228L299.56 181.979L296.739 198.567C296.608 199.359 296.924 200.139 297.556 200.601C298.199 201.073 299.026 201.128 299.734 200.755L314.492 192.928L329.25 200.755C329.555 200.92 329.882 200.997 330.208 200.997C330.633 200.997 331.058 200.865 331.417 200.601C332.06 200.128 332.376 199.348 332.234 198.567L329.435 181.979L341.372 170.228C341.939 169.678 342.146 168.853 341.895 168.095Z" fill="#FF4F5B"/>
</svg>
