<?xml version="1.0" encoding="utf-8"?>
<!-- Generator: Adobe Illustrator 23.0.3, SVG Export Plug-In . SVG Version: 6.00 Build 0)  -->
<svg version="1.1" id="Capa_1" xmlns="http://www.w3.org/2000/svg" xmlns:xlink="http://www.w3.org/1999/xlink" x="0px" y="0px"
	 viewBox="0 0 57 58" style="enable-background:new 0 0 57 58;" xml:space="preserve">
<style type="text/css">
	.st0{fill:#FF4F5B;}
	.st1{fill:#FFFFFF;}
</style>
<path class="st0" d="M47,45.6H19.6c-4.1,0-7.5-3.4-7.5-7.6V10.2c0-0.5,0.1-0.9,0.1-1.4c-3.5,0.6-6.1,3.8-6.1,7.5v27.8
	c0,4.2,3.4,7.6,7.5,7.6H41c3.7,0,6.7-2.7,7.4-6.2C47.9,45.6,47.4,45.6,47,45.6z"/>
<path class="st0" d="M11.7,53.7c-4.1,0-7.5-3.4-7.5-7.6V22.1C1.8,23,0,25.4,0,28.2v23.4C0,55.1,2.8,58,6.3,58h23
	c2.8,0,5.1-1.8,5.9-4.3L11.7,53.7L11.7,53.7z"/>
<path class="st0" d="M49.5,43.1H22.2c-4.1,0-7.5-3.4-7.5-7.6V7.6C14.7,3.4,18,0,22.2,0h27.4C53.6,0,57,3.4,57,7.6v27.8
	C57,39.7,53.6,43.1,49.5,43.1z"/>
<path class="st1" d="M51.7,17.8c-0.1-0.4-0.5-0.8-1-0.8l-9.6-1.4l-4.3-8.8C36.7,6.3,36.3,6,35.8,6c-0.5,0-0.9,0.3-1.1,0.7l-4.3,8.8
	L20.9,17c-0.5,0.1-0.8,0.4-1,0.8c-0.1,0.4,0,0.9,0.3,1.2l6.9,6.9l-1.6,9.7c-0.1,0.5,0.1,0.9,0.5,1.2c0.4,0.3,0.9,0.3,1.3,0.1
	l8.6-4.6l8.6,4.6c0.2,0.1,0.4,0.1,0.6,0.1c0.2,0,0.5-0.1,0.7-0.2c0.4-0.3,0.6-0.7,0.5-1.2l-1.6-9.7l6.9-6.9
	C51.7,18.7,51.9,18.2,51.7,17.8z"/>
</svg>
