<svg width="64" height="62" viewBox="0 0 64 62" fill="none" xmlns="http://www.w3.org/2000/svg">
<path d="M50.0333 41.983C49.9407 38.7507 49.5468 36.5112 48.8518 35.2644C48.2031 34.0177 46.6741 33.3943 44.2648 33.3943C41.9018 33.3943 39.7009 33.9022 37.6622 34.9181C37.6622 40.8286 37.361 47.6394 36.7587 55.3507L42.2493 55.9741C42.2493 57.8673 41.7164 59.8759 40.6507 62H23.3451L22.7196 58.1905C25.1289 57.3132 27.2371 56.6206 29.0441 56.1126L28.4881 41.7059C28.3955 38.7045 28.0248 36.5804 27.3761 35.3337C26.7738 34.0408 25.5923 33.3943 23.8316 33.3943C22.9049 33.3943 21.5612 33.5559 19.8006 33.8792C18.0399 34.2024 16.6962 34.5487 15.7695 34.9181C15.7695 35.0566 15.561 41.8675 15.144 55.3507L20.5651 55.9741C20.5651 58.0058 20.0322 60.0145 18.9666 62H1.6609L1.03539 58.1905C3.76908 57.1285 5.8541 56.4359 7.29045 56.1126L6.38694 33.7406C4.48726 33.5559 2.65707 33.2096 0.896392 32.7017L1.2439 27.7147C2.03157 27.4839 3.72275 27.2068 6.31744 26.8836C8.91213 26.5604 10.8813 26.3987 12.225 26.3987C12.4103 26.5373 12.7578 26.9759 13.2675 27.7147C13.7772 28.4074 14.1247 28.9615 14.31 29.3771C15.8854 28.5921 17.785 27.8302 20.0091 27.0914C22.2794 26.3526 23.6694 25.9832 24.1791 25.9832C29.0905 25.9832 32.6813 27.253 34.9517 29.7926C36.7124 28.8691 38.8437 28.0149 41.3457 27.2299C43.8478 26.3987 45.4 25.9832 46.0023 25.9832C50.404 25.9832 53.6937 27.0221 55.8714 29.1C58.0491 31.1779 59.1379 34.6411 59.1379 39.4895C59.1379 42.1676 58.9294 47.4547 58.5124 55.3507L63.9334 55.9741C63.9334 58.0058 63.4006 60.0145 62.3349 62H45.0988L44.4733 58.1905C46.651 57.3132 48.6433 56.6206 50.4503 56.1126C50.404 55.0506 50.3577 53.5499 50.3113 51.6105C50.2187 48.4244 50.126 45.2152 50.0333 41.983Z" fill="#29E68B"/>
<path d="M0 14.4939L15.7307 7.24693L31.4614 0L31.1526 6.69198L3.02389 19.7928L0 14.4939Z" fill="#29E68B"/>
<path d="M62.614 14.4939L31.4614 0L31.1216 6.80592L59.5901 19.7928L62.614 14.4939Z" fill="#29E68B"/>
</svg>
